<?xml version="1.0" encoding="UTF-8"?>
<svg id="b" data-name="圖層 2" xmlns="http://www.w3.org/2000/svg" width="67.1" height="72.81" xmlns:xlink="http://www.w3.org/1999/xlink" viewBox="0 0 67.1 72.81">
  <defs>
    <linearGradient id="d" data-name="未命名漸層 51" x1="0" y1="36.4" x2="67.1" y2="36.4" gradientTransform="matrix(1, 0, 0, 1, 0, 0)" gradientUnits="userSpaceOnUse">
      <stop offset="0" stop-color="#83b9e4"/>
      <stop offset=".03" stop-color="#76b6dd"/>
      <stop offset=".11" stop-color="#52b0cb"/>
      <stop offset=".2" stop-color="#34abbc"/>
      <stop offset=".29" stop-color="#1da7b0"/>
      <stop offset=".39" stop-color="#0ca4a8"/>
      <stop offset=".5" stop-color="#03a2a3"/>
      <stop offset=".64" stop-color="#00a2a2"/>
      <stop offset="1" stop-color="#006e5a"/>
    </linearGradient>
    <linearGradient id="e" data-name="未命名漸層 51" x1="30.72" y1="36.37" x2="37.49" y2="36.37" xlink:href="#d"/>
  </defs>
  <g id="c" data-name="圖層 1">
    <g>
      <path d="M58.47,39.27c-1.29-1.29-1.45-2.08,.09-3.28,2.52-1.97,4.83-4.17,6.61-6.87,4.03-6.12,1.57-11.2-5.69-11.68-3.98-.26-7.95-.04-11.78,1.04-2.36,.67-3.09-.02-3.48-2.34-.64-3.78-1.82-7.45-3.74-10.81C38.92,2.63,37.12-.05,33.57,0c-3.53,.05-5.32,2.72-6.86,5.43-1.72,3.02-2.72,6.34-3.41,9.72-.4,1.93-1.04,2.45-3.06,1.75-4-1.37-8.15-2.17-12.43-1.73C2.54,15.72,.21,19.46,2.06,24.39c1.34,3.57,3.78,6.37,6.51,8.88,1.69,1.55,1.6,2.47-.24,3.76-2.74,1.92-5.01,4.37-6.75,7.24-3.47,5.71-1.07,10.41,5.65,10.99,3.83,.33,7.7,.27,11.41-.81,2.7-.79,4.03-.53,4.54,2.74,.65,4.14,1.98,8.21,4.47,11.72,3.73,5.24,8.31,5.2,12.01-.1,2.38-3.42,3.54-7.36,4.44-11.34,.44-1.95,1.15-2.15,2.83-1.6,3.16,1.02,6.39,1.8,9.75,1.8,3.24,0,6.55,.02,8.4-3.33,1.91-3.46,.26-6.48-1.64-9.25-1.44-2.09-3.16-4.02-4.96-5.81Zm-36.76,8.33c-.12,1.9-.71,2.49-2.21,2.74-2.88,.48-5.77,.88-8.21,1.24-2.67-.39-5.57,.55-6.69-1.9-1.19-2.61,1.4-4.31,2.81-6.19,.38-.5,.83-1,1.34-1.35,1.87-1.24,3.34-4.7,5.67-3.26,3.16,1.95,7.63,3.31,7.28,8.71Zm-.73-9.63c-1.37-.74-3.4-.81-2.93-2.75,.16-.67,1.94-1.66,2.41-1.42,1.74,.92,.26,2.68,.52,4.17Zm.91-14.33c-.21,4.03-3.55,8.05-7.33,8.83-.23,.05-.49,.13-.71,.1-1.95-.31-8.53-8.92-8.45-11.01,.06-1.69,1.29-2.12,2.59-2.27,4.42-.54,8.6,.65,12.76,1.94,1.36,.42,1.29,1.37,1.14,2.42Zm4.93-5.95c1.02-4.05,1.88-8.17,4.3-11.71,1.67-2.42,3.37-2.43,5.02,0,2.57,3.77,3.38,8.16,4.35,12.27,.09,2.16-4.61,4.57-7.17,3.72-1.91-.64-3.71-1.63-5.56-2.46-.8-.36-1.16-.97-.95-1.83Zm-.8,6.1c.96-.79,1.79-.05,2.95,.95-1.29,.47-2.08,1.76-3.25,.78-.24-.2-.06-1.43,.31-1.73Zm14.45,31.46c-.99,4.09-2.01,8.16-4.48,11.68-1.63,2.32-3.26,2.14-4.77-.1-2.55-3.78-4-8.07-4.36-12.49-.33-3.98,4.07-2.23,5.82-4.09,2.57,1.12,5.02,2.14,7.42,3.27,.65,.31,.53,1.11,.38,1.73Zm.81-6.41c-.94,.95-1.74,.08-2.91-.75,1.1-.64,1.84-1.56,2.84-.92,.29,.18,.35,1.39,.07,1.67Zm.03-6.85c-2.41,1.59-5.24,3.49-7.89,3.48-2.46-.01-5.15-2.05-7.28-3.77-2.13-1.72-.79-4.53-.92-6.84-.2-3.61,4.89-8.18,8.79-7.52,2.26,.38,4.27,2.14,6.44,3.17,3,1.42,.94,4.13,1.78,5.89-.53,2.03,.88,4.4-.92,5.6Zm7.48-19.7c2.48-.49,5-.8,7.2-1.14,2.62,.43,5.73-.6,6.77,2.12,.96,2.51-1.5,4.32-3.02,6.15-.16,.2-.34,.38-.52,.56-5.06,5.07-7.72,5.01-12.54-.31-2.32-2.56-1.17-6.72,2.11-7.37Zm-2.81,14.65c.24-.75-.45-2.17,.78-2.11,1.17,.06,2.58,1.1,2.66,2.29,.07,1.11-1.47,1.74-2.5,1.81-1.38,.09-.67-1.28-.94-2Zm15.64,15.16c-.96,1.86-3.08,1.41-5.61,1.55-1.39-.24-3.6-.38-5.63-1.05-1.77-.58-4.83-.05-4.89-2.58-.07-2.76-.38-5.89,3.43-7.62,5.01-2.27,4.85-2.65,8.58,1.55,.93,1.05,1.89,2.1,2.62,3.29,.92,1.47,2.46,3.02,1.51,4.86Z" style="fill: url(#d);"/>
      <path d="M37.49,36.46c-.52,2.12-1.64,3.45-3.76,3.24-1.87-.19-3.05-1.49-3.02-3.37,.04-2.08,1.4-3.36,3.45-3.31,2.12,.05,2.97,1.65,3.32,3.44Z" style="fill: url(#e);"/>
    </g>
  </g>
</svg>