<?xml version="1.0" encoding="UTF-8"?>
<svg id="b" data-name="圖層 2" xmlns="http://www.w3.org/2000/svg" width="67.78" height="70.41" xmlns:xlink="http://www.w3.org/1999/xlink" viewBox="0 0 67.78 70.41">
  <defs>
    <linearGradient id="d" data-name="未命名漸層 51" x1="0" y1="35.2" x2="67.78" y2="35.2" gradientTransform="matrix(1, 0, 0, 1, 0, 0)" gradientUnits="userSpaceOnUse">
      <stop offset="0" stop-color="#83b9e4"/>
      <stop offset=".03" stop-color="#76b6dd"/>
      <stop offset=".11" stop-color="#52b0cb"/>
      <stop offset=".2" stop-color="#34abbc"/>
      <stop offset=".29" stop-color="#1da7b0"/>
      <stop offset=".39" stop-color="#0ca4a8"/>
      <stop offset=".5" stop-color="#03a2a3"/>
      <stop offset=".64" stop-color="#00a2a2"/>
      <stop offset="1" stop-color="#006e5a"/>
    </linearGradient>
  </defs>
  <g id="c" data-name="圖層 1">
    <path d="M38.71,30.45c-3.6,.87-7.11,2.13-10.61,3.2,1.94-2.28,3.79-4.45,5.64-6.61-.83,3.43,.52,3.43,3,2.63,1.5-.49,1.67-1.4,1.89-2.65C41.06,13.59,27.91-.92,14.16,.05c-1.14,.08-2.2,.25-2.4,1.62-.18,1.28,.54,2.04,1.71,2.36,2.3,.64,4.73,.9,6.38,1.88-4.62,4.63-9.28,9.29-13.95,13.97-.63-1.3-1.25-2.89-1.54-4.64-.26-1.53-1.28-2.46-2.91-1.9-1.31,.46-1.71,1.53-1.32,2.94,4.2,15.46,14.71,27.11,33.83,20.17,2.66-.97,5.26-2.26,8.07-2.13-2.18,2.36-4.29,4.64-6.57,7.11-.36-1.7,1.29-2.88,.64-4.49-2.07,.91-4.68,.72-5.26,3.7-.62,3.18-1.24,6.3-.8,9.6,1.52,11.44,13.34,18.23,22.74,20.11,1.24,.25,2.16-.27,2.56-1.41,.49-1.43-.29-2.36-1.57-2.81-2.09-.73-4.4-.9-5.65-1.88,4.82-4.92,9.58-9.77,14.43-14.72,.31,1.51,.72,3.17,.97,4.85,.24,1.57,.96,2.6,2.61,2.39,1.55-.2,1.63-1.47,1.64-2.77,.21-15.81-13.81-27.22-29.07-23.54Zm-29.53-4.13c-1.29-1.33-1.16-2.37,.21-3.69,4.56-4.4,8.97-8.94,13.47-13.4,.71-.71,1.36-1.85,2.68-.98,.64,.42,1.52,.62,1.65,1.86-.43,.46-.94,1.06-1.5,1.62-4.55,4.59-9.09,9.21-13.7,13.74-.69,.68-1.31,2.42-2.81,.86Zm4.3,4.71c-1.61-1.53,.18-2.14,.84-2.82,4.78-4.92,9.63-9.78,14.49-14.62,.59-.59,1.14-1.77,2.27-.8,.48,.41,.8,1.03,1.27,1.66-.58,.7-1.03,1.35-1.59,1.9-4.65,4.68-9.32,9.33-13.97,14-.96,.97-1.83,2.1-3.32,.68Zm5.65,2.5c5.02-4.8,10.08-9.64,15.09-14.43,.55,4.07-10.94,15.42-15.09,14.43Zm15.54,17.72c-.54-5.41,12.21-17.69,15.71-16.25-5.04,5.22-10.21,10.56-15.71,16.25Zm2.46,5.36c-.77-.97-1-1.72,.02-2.73,5.42-5.37,10.79-10.8,16.18-16.21,.57-.57,1.18-1.15,2.06-.46,.53,.42,1.08,.8,1.69,1.26-.66,.82-1.03,1.37-1.49,1.83-5.32,5.29-10.64,10.57-15.99,15.82-.67,.65-1.28,1.98-2.47,.48Zm22.1-9.96c-4.55,4.6-9.14,9.15-13.65,13.79-1.19,1.23-2.25,1.94-3.72,.55-1.83-1.73,.33-2.34,1.05-3.09,4.76-4.95,9.63-9.81,14.48-14.67,.52-.52,1.1-1.56,1.9-.99,.68,.49,.94,1.55,1.48,2.52-.55,.68-.99,1.33-1.54,1.88Z" style="fill: url(#d);"/>
  </g>
</svg>