<?xml version="1.0" encoding="UTF-8"?>
<svg id="b" data-name="圖層 2" xmlns="http://www.w3.org/2000/svg" width="55.92" height="75.77" xmlns:xlink="http://www.w3.org/1999/xlink" viewBox="0 0 55.92 75.77">
  <defs>
    <linearGradient id="d" data-name="未命名漸層 51" x1="0" y1="37.89" x2="55.92" y2="37.89" gradientTransform="matrix(1, 0, 0, 1, 0, 0)" gradientUnits="userSpaceOnUse">
      <stop offset="0" stop-color="#83b9e4"/>
      <stop offset=".03" stop-color="#76b6dd"/>
      <stop offset=".11" stop-color="#52b0cb"/>
      <stop offset=".2" stop-color="#34abbc"/>
      <stop offset=".29" stop-color="#1da7b0"/>
      <stop offset=".39" stop-color="#0ca4a8"/>
      <stop offset=".5" stop-color="#03a2a3"/>
      <stop offset=".64" stop-color="#00a2a2"/>
      <stop offset="1" stop-color="#006e5a"/>
    </linearGradient>
  </defs>
  <g id="c" data-name="圖層 1">
    <path d="M55,34.25c-1.59-2.02-3.19-4.03-4.79-6.05,.01-1.28,.15-2.51,.52-3.78,2.86-9.77,.07-16.09-8.97-20.72-2.77-1.42-5.7-2.4-8.74-2.94C21.47-1.31,11.16,.49,3.94,10.83,.22,16.14-1.35,21.91,1.38,28.24h0c-.11,1.49,.67,2.7,1.26,3.98,1.62,3.48,4.58,5.8,7.2,8.44,6.4,6.47,6.92,11.15,2.1,18.89-1.29,2.07-2.76,4.03-4.18,6.03-1.42,2-.95,3.2,1.53,3.13,8.12-.22,15.41,2.46,22.5,6.05,1.44,.73,3.21,1.87,4.48-.04,1.12-1.68-.37-2.89-1.49-3.91-2.76-2.47-2.83-5.42-1.35-8.44,2.31-4.71,5.4-8.51,11.38-8.32,1.15,.04,2.31-.13,3.47-.24,2.62-.24,4.13-1.51,3.58-4.31-.62-3.17,1.71-6.15,.4-9.41-.43-1.06,.75-1.71,1.83-2.05,2.33-.73,2.24-2.14,.94-3.8Zm-16.87-1.41c-.17,1.2-.99,1.82-2.18,1.68-1.18-.14-1.79-.92-1.76-2.13,.02-.77,.1-1.54,.08-2.31-.15-5.2-4.27-9.05-9.28-8.7-5.02,.35-8.58,4.67-8.1,9.85,.44,4.75,4.89,8.21,9.8,7.76,1.74-.16,4.59-2.34,4.88,1.1,.25,2.9-2.94,2.74-4.98,2.89-8.57,.62-13.83-4.96-14.05-14.71,2.7-7.72,7.15-11.33,13.79-10.9,6.83,.45,10.41,4.74,12.26,10.89-.15,1.53-.24,3.06-.46,4.58Z" style="fill: url(#d);"/>
  </g>
</svg>