<?xml version="1.0" encoding="UTF-8"?>
<svg id="b" data-name="圖層 2" xmlns="http://www.w3.org/2000/svg" width="225.23" height="106.32" viewBox="0 0 225.23 106.32">
  <g id="c" data-name="圖層 1">
    <g>
      <g>
        <path d="M9.86,1.11c.8-.93,1.62-1.08,2.45-.46,1.42,1.39,2.22,2.53,2.41,3.43-.34,.46-.99,.62-1.94,.46h-2.32c-.77,0-1.16,.37-1.16,1.11V15.42c0,.8,.26,.82,.79,.05,.74-1.54,1.68-1.53,2.82,.05,.43,.43,.79,.86,1.07,1.3,.8,.8,1.05,1.48,.74,2.04-.15,.09-.69,.14-1.62,.14h-2.64c-.77,0-1.16,.37-1.16,1.11v9.63c0,.74,.46,1.02,1.39,.83l2.78-.88c.93-.34,1.45-.43,1.57-.28,0,.15-.43,.62-1.3,1.39-2.9,2.16-6.18,4.14-9.82,5.93-.65,.46-.99,.85-1.02,1.16-.22,.65-.62,.82-1.2,.51-.56-.83-1.11-2.47-1.67-4.91-.19-1.02,.26-1.53,1.34-1.53,.56-.09,1.11-.14,1.67-.14,.74-.06,1.11-.46,1.11-1.2v-10.42c0-.74-.46-1.1-1.39-1.07l-.46,.05c-1.24,.19-1.93-.05-2.08-.69-.12-.71,.29-1.02,1.25-.93,.52,0,1.05,.05,1.57,.14,.74,0,1.11-.37,1.11-1.11V5.74c0-.74-.46-1.09-1.39-1.06l-.46,.05c-1.2,.22-1.88,0-2.04-.65-.19-.68,.19-1,1.11-.97,1.36,.25,3.27,.32,5.74,.23,.8,0,1.45-.36,1.94-1.07l.79-1.16Zm28.99,14.26c.52-.62,.88-.99,1.07-1.11,1.94,.8,3.6,2.29,4.95,4.45-.28,.46-.93,.62-1.94,.46h-10.47c-.74,0-1.39,.46-1.94,1.39-.62,1.02-1.34,1.98-2.18,2.87-.77,.77-.82,1.16-.14,1.16h8.2c.77,0,1.37-.28,1.81-.83,.59-1.14,1.48-1.23,2.69-.28,1.2,.65,2.11,1.3,2.73,1.94,.46,.65,.39,1.17-.23,1.57-.25,.15-.37,.6-.37,1.34v12.97c-.56,2.59-2.08,3.95-4.59,4.08-1.02,.03-1.53-.22-1.53-.74,.12-.74-.12-1.54-.74-2.41-.59-.74-.93-.96-1.02-.65-.71,1.36-1.85,1.81-3.43,1.34-1.05-.34-1.48-1.17-1.3-2.5v-13.43c0-.77-.42-1.16-1.25-1.16-.89,0-1.34,.37-1.34,1.11v12.87c.12,2.44-.97,3.41-3.29,2.92-1.27-.31-1.77-1.22-1.53-2.73v-13.01c0-.77-.33-1.16-.97-1.16-1.3-.31-1.79,.12-1.48,1.3v14.87c.12,1.08-.05,1.93-.51,2.55-.93,.74-2.08,1-3.47,.79-1.05-.25-1.42-1.03-1.11-2.36V24.18c0-.99,.48-1.34,1.44-1.07,.99,.22,2.05,.62,3.2,1.2,.37,.19,.93,.28,1.67,.28h2.41c.74,0,1.17-.46,1.3-1.39l.05-2.87c0-.77-.37-1.16-1.11-1.16h-5.23l-1.53,.23c-.99,.15-1.57-.08-1.76-.69-.22-.74,.23-1.07,1.34-.97,.55,.03,1.16,.11,1.81,.23h16.39c.83,.25,1.48,0,1.94-.74l1.48-1.85ZM26.34,1.44c-.03-.99,.42-1.47,1.34-1.44,2.32,.06,4.01,.43,5.09,1.11,.31,.55-.06,1.05-1.11,1.48-.12,.12-.19,.56-.19,1.3v6.39c0,.77,.37,1.16,1.11,1.16h2.82c.77,0,1.16-.37,1.16-1.11V2.64c0-.99,.48-1.45,1.44-1.39l3.15,.46c.59,.03,1.13,.25,1.62,.65,.37,.56,.06,1.07-.93,1.53-.12,.19-.19,.65-.19,1.39v5.88c.31,1.48-.17,2.41-1.44,2.78-1.36,.34-2.53,.08-3.52-.79-.22-.31-.6-.46-1.16-.46h-12.69c-.74,0-1.14,.15-1.2,.46-.65,1.36-1.91,1.79-3.8,1.3-.55-.25-.93-.51-1.11-.79-.12-.31-.19-.93-.19-1.85V2.64c0-.99,.48-1.45,1.44-1.39l3.15,.46c.59,.03,1.13,.25,1.62,.65,.37,.56,.06,1.07-.93,1.53-.15,.19-.23,.65-.23,1.39v5c0,.77,.37,1.16,1.11,1.16h2.45c.77,0,1.16-.37,1.16-1.11V1.44Zm11.53,25.61c0-.8-.43-1.2-1.3-1.2-.93,0-1.39,.37-1.39,1.11v11.58c0,.74,.28,1.1,.83,1.06,1.3,.31,1.91-.29,1.85-1.81v-10.74Z"/>
        <path d="M72.4,1.44c0-.96,.46-1.42,1.39-1.39,1.02,.09,2.08,.23,3.2,.42,.62,.25,.97,.42,1.07,.51,.34,.46,.14,.86-.6,1.2-.31,.15-.46,.59-.46,1.3v1.07c0,.77,.28,1.16,.83,1.16,.83,.25,1.56-.31,2.18-1.67,.77-1.67,1.56-2.02,2.36-1.07,.68,.55,1.24,1.16,1.67,1.81,.86,.8,1.06,1.5,.6,2.08-.15,.06-.69,.09-1.62,.09h-4.86c-.77,0-1.16,.37-1.16,1.11v2.64c0,.77,.49,1.16,1.48,1.16,1.02,.25,1.79,0,2.32-.74l1.3-1.85c.28-.56,.62-.8,1.02-.74,1.54,1.08,2.65,2.41,3.33,3.98-.28,.56-.93,.74-1.95,.56h-18.85c-.99,.09-1.98,.23-2.96,.42-.12-.09-.23-.4-.33-.93-.12-.68,.22-1,1.02-.97,1.08,.06,1.62-.22,1.62-.83V4.59c0-.93,.46-1.39,1.39-1.39,1.08,.09,2.16,.25,3.24,.46,.52,.12,.86,.26,1.02,.42,.4,.53,.2,.93-.6,1.2-.31,.12-.46,.57-.46,1.34v4.08c0,.77,.46,1.16,1.39,1.16s1.44-.37,1.44-1.11V1.44Zm20.15-.74c.12-.15,.65-.15,1.57,0,2.13,.49,3.54,1.06,4.21,1.71,.15,.49-.11,.76-.79,.79-.46,.12-.43,.66,.09,1.62,2.16,3.4,4.95,5.74,8.38,7.04,1.08,.43,1.08,1.05,0,1.85-.83,.77-1.41,1.54-1.71,2.32-.31,.93-.51,1.44-.6,1.53-.59-.19-1.42-.86-2.5-2.04-2.22-3.03-3.75-6.11-4.58-9.26-.25-.86-.57-.97-.97-.32-2.62,4.66-6.04,8.27-10.23,10.84-.74,.43-1.11,1.02-1.11,1.76v23.9c.43,1.91-.48,2.84-2.73,2.78-1.24-.12-1.79-.79-1.67-1.99,0-.59-.37-.88-1.11-.88h-9.82c-.77,0-1.16,.25-1.16,.74-.06,1.64-.86,2.35-2.41,2.13-1.57-.03-2.22-.91-1.94-2.64V15.38c0-1.02,.56-1.48,1.67-1.39,.62,.03,1.23,.12,1.85,.28,.77,.03,1.36,.19,1.76,.46,.31,.28,.26,.71-.14,1.3-.53,.59-.79,1.25-.79,1.99v4.4c0,1.05,.25,1.08,.74,.09,.71-1.76,1.23-3.81,1.57-6.16,.15-.93,.29-1.42,.42-1.48,1.73,.15,2.9,.57,3.52,1.25-.06,.19-.19,.34-.37,.46-.22,.06-.48,.31-.79,.74-.25,.53,.06,1.16,.93,1.9,.77,1.02,1.25,1.19,1.44,.51l.6-3.29c.19-.93,.74-1.33,1.67-1.2,1.11,.15,1.85,.55,2.22,1.2-.19,.25-.34,.39-.46,.42-.15,0-.43,.34-.83,1.02-.31,.68-.15,1.28,.46,1.81,.65,.8,.97,.82,.97,.05v-4.17c0-1.02,.56-1.48,1.67-1.39,.9,.09,1.79,.23,2.69,.42,.83,.25,1.6-.05,2.32-.88,3.09-3.98,5.08-8.32,5.97-13.01Zm-20.19,19.96c-.25-.86-.63-.83-1.16,.09-.65,.99-1.42,2.02-2.32,3.1-.71,.8-1.07,1.37-1.07,1.71,0,.46,.37,.69,1.11,.69h9.82c.77,0,1.16-.29,1.16-.88,0-.62-.15-.9-.46-.83-.93,.19-1.47-.29-1.62-1.44,.06-.56,.05-1.13-.05-1.71-.25-.8-.63-.74-1.16,.19-.46,.83-1.36,1.92-2.69,3.24-1.14,.8-1.36,.66-.65-.42,.46-.68,.6-1.05,.42-1.11-.46,0-.8-.29-1.02-.88-.03-.59-.14-1.17-.32-1.76Zm7.55,8.06c0-.8-.36-1.2-1.07-1.2h-9.86c-.77,0-1.16,.37-1.16,1.11v8.15c0,1.02,.25,1.09,.74,.23,.71-1.88,1.23-3.95,1.57-6.21,.12-.93,.25-1.44,.37-1.53,.65,.03,1.34,.19,2.08,.46,1.3,.25,1.68,.69,1.16,1.34-.25-.09-.56,.2-.93,.88-.19,.4,.15,.94,1.02,1.62,.74,1.02,1.24,1.16,1.48,.42,.25-1.05,.43-2.1,.55-3.15,.09-.93,.2-1.45,.33-1.57,.65,.03,1.34,.17,2.08,.42,.99,.49,1.48,.82,1.48,.97-.03,.19-.19,.33-.46,.42-.28,.19-.56,.57-.83,1.16-.28,.59-.08,1.17,.6,1.76,.56,.71,.83,.69,.83-.05v-5.23Zm-7.5,6.44c-.28-.83-.66-.83-1.16,0-.71,1.05-1.5,2.1-2.36,3.15-.71,.83-1.07,1.5-1.07,1.99,0,.52,.37,.79,1.11,.79h9.82c.77,0,1.16-.36,1.16-1.06s-.15-1.08-.46-1.02c-.53,.12-.97-.06-1.34-.56-.15-.34-.23-1.05-.23-2.13,0-.15-.05-.35-.14-.6-.22-.83-.6-.71-1.16,.37-.77,1.17-1.73,2.29-2.87,3.33-.83,.68-.97,.51-.42-.51,.53-.87,.68-1.3,.46-1.3-.9-.22-1.3-.8-1.2-1.76,0-.19-.05-.42-.14-.69Zm27.28-14.17c.52-.8,1.36-.99,2.5-.56,1.45,.65,2.53,1.5,3.24,2.55,.03,.28-.17,.6-.6,.97-.83,.22-1.16,.82-.97,1.81v7.92c-.06,2.04-1.24,3.35-3.52,3.94-.93,.06-1.41-.43-1.44-1.48-.15-.86-.8-1.59-1.94-2.18-.65-.25-.97-.48-.97-.69,.09-.22,.22-.37,.37-.46,.74,.09,1.53,.11,2.36,.05,.55-.22,.76-.8,.6-1.76v-6.25c.25-1.33-.23-1.85-1.44-1.57h-1.39c-.77,0-1.16,.37-1.16,1.11v17.64c.18,2.32-.93,3.23-3.33,2.73-1.11-.43-1.53-1.34-1.25-2.73V24.41c0-.77-.37-1.16-1.11-1.16-.71,.03-1.42,.11-2.13,.23-.96,.15-1.51-.08-1.67-.69-.15-.65,.28-.97,1.3-.97,.59,.03,1.17,.11,1.76,.23h8.8c.77,0,1.44-.35,1.99-1.07Zm-3.38-6.44c.65-.83,1.05-1.27,1.2-1.3,1.3,.71,2.28,1.73,2.96,3.06,.34,.49,.32,.86-.05,1.11-.15,.06-.69,.09-1.62,.09h-6.81l-1.76,.28c-.93,.06-1.45-.15-1.57-.65l-.19-.93c.03-.15,.51-.2,1.44-.14,1.3,.28,3.03,.32,5.19,.14l1.2-1.67Z"/>
        <path d="M137.08,7.6c.59-.89,1.37-.79,2.36,.32,.56,.46,1.11,.99,1.67,1.57,.65,1.11,.85,1.73,.6,1.85l-1.57,.05h-13.94l-1.48,.23c-.99,.19-1.62-.17-1.9-1.07l-.14-.55c.06-.12,.56-.14,1.48-.05,.59,.03,1.22,.11,1.9,.23h7.6c.86,.25,1.5,0,1.9-.74,.46-.62,.97-1.24,1.53-1.85Zm-13.2,21.3c0-1.02,.48-1.4,1.44-1.16,.8,.19,1.6,.48,2.41,.88,.74,.62,2.22,.82,4.45,.6,.74,0,1.42-.29,2.04-.88,.62-.55,1.39-.68,2.32-.37,.77,.34,1.54,.74,2.32,1.2,1.64,.71,1.91,1.48,.83,2.32-.68,.4-.91,1-.69,1.81v7.46c.43,1.73-.37,2.72-2.41,2.96-1.64,.53-2.47-.18-2.5-2.13,0-.74-.37-1.11-1.11-1.11h-3.01c-.77,0-1.16,.37-1.16,1.11,.34,1.95-.56,3.04-2.69,3.29-.59,.09-1.16,0-1.71-.28-.49-.46-.66-1.17-.51-2.13v-13.57ZM134.95,1.2c.56-.8,1.3-.68,2.22,.37,.93,.77,1.81,1.75,2.64,2.92-.06,.62-.66,.82-1.81,.6h-10.33l-1.48,.28c-1.02,.09-1.62-.14-1.81-.7-.19-.77,.26-1.11,1.34-1.02,1.2,.19,3.16,.25,5.88,.19,.77,0,1.51-.45,2.22-1.34l1.11-1.3Zm11.81,.88c.03-1.02,.54-1.53,1.53-1.53,1.85,.19,3.47,.51,4.86,.97,.46,.25,.56,.57,.28,.97-.28,.31-.31,.77-.09,1.39,1.7,5.4,5.56,9.76,11.58,13.06,1.14,.37,1.67,.8,1.57,1.3-1.45,.12-2.78,.82-3.98,2.08-.62,.93-.99,1.41-1.11,1.44-.15,0-.4-.11-.74-.32-3.64-3.15-6.1-7.09-7.36-11.81-.55-1.85-.91-3.77-1.07-5.74-.09-.09-.34,.36-.74,1.34-2.32,6.55-6.16,12.16-11.53,16.86-.59,.46-.83,.85-.74,1.16,.06,.22,.03,.4-.09,.55-.19,.12-.74,.19-1.67,.19h-9.59l-1.48,.23c-.99,.15-1.59-.06-1.81-.65-.19-.77,.28-1.11,1.39-1.02,1.2,.28,3.27,.33,6.21,.14,.46-.46,.93-.99,1.39-1.57l.74-.93c.65-.93,1.56-.73,2.73,.6,.93,.93,1.71,.96,2.36,.09,4.23-6.14,6.68-12.41,7.36-18.8Zm-13.2,12.69c.86-.99,1.37-1.51,1.53-1.57,1.08,.49,2.16,1.36,3.24,2.59,.65,1.11,.85,1.71,.6,1.81-.12,.06-.65,.09-1.58,.09h-9.49l-1.48,.23c-.99,.16-1.59-.06-1.81-.65-.19-.77,.28-1.11,1.39-1.02,1.17,.19,2.86,.25,5.05,.19,.9,.37,1.74-.19,2.55-1.67Zm.51,17c0-.86-.39-1.3-1.16-1.3h-2.96c-.77,0-1.16,.37-1.16,1.11v6.48c0,.77,.37,1.16,1.11,1.16h3.01c.77,0,1.16-.37,1.16-1.11v-6.34Zm24.82-2.27c.53-.9,1.37-1.03,2.55-.42,1.02,.59,2.08,1.28,3.2,2.08,.8,.77,.69,1.25-.32,1.43-.31-.03-.93,.34-1.85,1.11-4.54,4.41-9.32,7.55-14.36,9.4-2.93,1.05-5.79,1.67-8.57,1.85-.19-.12-.26-.25-.23-.37,.43-.4,1.13-.74,2.08-1.02,7.75-3.21,13.58-7.9,17.51-14.08Zm-9.68-14.63c.09-.12,.22-.19,.37-.19,1.76,.43,3.46,1.19,5.09,2.27,.4,.62,.19,.99-.65,1.11-.31,0-.82,.46-1.53,1.39-3.52,4.57-7.29,7.35-11.3,8.34-.12-.12,.28-.65,1.2-1.58,3.43-3.3,5.7-7.09,6.81-11.35Zm-6.9,20.19c5.34-3.43,9.34-7.95,11.99-13.57,.99,.25,2.18,.87,3.57,1.85,.55,.28,1.05,.74,1.48,1.39,.09,.8-.25,1.06-1.02,.79-.31,.03-.91,.54-1.81,1.53-4.51,4.72-9.06,7.66-13.66,8.8-1.36,.25-1.54-.02-.55-.79Z"/>
        <path d="M190.91,5.33c2.78-1.33,5.06-2.72,6.85-4.17,.15-.06,.69,.12,1.62,.56,1.7,.93,2.9,1.73,3.61,2.41,.46,.55,.45,.99-.05,1.3-.15,.06-.79,.09-1.9,.09-3.24,.8-6.53,1.37-9.86,1.71-.74,.12-1.11,.56-1.11,1.3v4.91c0,.77,.37,1.16,1.11,1.16h3.33c.71,.37,1.73-.23,3.06-1.81,2.84,1.02,4.65,2.05,5.42,3.1,.09,.25-.08,.56-.51,.93-.83,.34-1.16,.99-.97,1.94v9.22c.43,1.73-.37,2.72-2.41,2.96-1.82,.37-2.72-.23-2.69-1.81,0-.71-.37-1.07-1.11-1.07h-4.86c-.74,0-1.19,.46-1.34,1.39-.68,5.25-2.53,9.75-5.56,13.52-.9,.89-1.48,1.39-1.76,1.48-.25,0-.22-.49,.09-1.48,1.94-6.17,2.96-14.2,3.06-24.08V5.56c0-1.05,.57-1.37,1.71-.97,.59,.22,1.17,.48,1.76,.79,.8,.37,1.64,.35,2.5-.05Zm5.51,11.76c0-.83-.4-1.25-1.2-1.25-1.67-.03-3.33-.02-5,.05-.15,.09-.23,.51-.23,1.25-.03,3.06-.18,5.93-.46,8.61-.03,.74,.32,1.11,1.07,1.11h4.68c.77,0,1.16-.37,1.16-1.11v-8.66Zm14.5-12.18c3.12-1.14,6.01-2.52,8.66-4.12,2.04,.99,3.7,2.18,5,3.57,.24,.99-.17,1.37-1.25,1.16-.31-.06-.62-.08-.92-.05-4.08,.71-7.97,1.24-11.67,1.57-.74,.09-1.1,.6-1.06,1.53v6.67c0,.93,.37,1.39,1.11,1.39h4.77c.99,.37,1.85-.19,2.59-1.67,.3-.31,.57-.62,.79-.93,.86-.83,1.76-.99,2.68-.46,1.94,1.42,3.15,2.73,3.61,3.94-.28,.37-.91,.5-1.9,.37h-2.27c-.77,0-1.16,.37-1.16,1.11v24.54c-.59,1.57-1.98,2.04-4.17,1.39-.59-.19-.92-.62-1.02-1.3V19.04c0-.77-.37-1.16-1.11-1.16h-2.82c-.74,0-1.14,.46-1.2,1.39-.06,4.85-.79,9.63-2.18,14.36-1.7,5-5,8.52-9.91,10.56-.93,.28-1.47,.37-1.62,.28-.09-.15-.11-.31-.05-.46,2.5-1.88,4.4-4.25,5.7-7.09,1.11-2.41,1.85-4.88,2.22-7.41,.43-4.51,.69-10.5,.79-17.97V4.86c0-.93,.03-1.45,.09-1.57,.12-.12,.68,.02,1.67,.42l1.85,.93c.9,.53,1.82,.62,2.78,.28Z"/>
      </g>
      <g>
        <path d="M50.75,83.02c-.02-.52,.22-.77,.71-.76l1.76,.24c.7,.07,1.05,.3,1.05,.71-.08,.28-.25,.43-.51,.46-.34,.13-.46,.43-.34,.91v6.36c0,.39,.04,.6,.12,.61,.08-.02,.3-.27,.66-.76,.29-.44,.53-.72,.71-.83,.11-.02,.46,.25,1.03,.81,.57,.65,.76,1.11,.56,1.37-.08,.05-.37,.07-.86,.07h-1.61c-.41,0-.61,.2-.61,.59v.64c0,.39,.24,.69,.73,.91,1.84,.95,2.78,2.22,2.81,3.82-.28,1.34-.98,1.76-2.1,1.27-.21-.18-.38-.41-.49-.69-.1-.65-.17-1.3-.22-1.96-.11-.5-.29-.97-.54-1.39-.13-.13-.2,.05-.2,.54v9.32c-.18,.57-.59,.88-1.22,.93-1.14,.03-1.62-.49-1.44-1.57v-5.48c0-.55-.09-.57-.27-.05-.52,1.61-1.47,2.9-2.84,3.87-.13-.02-.22-.06-.27-.12,1.63-3.38,2.68-6.72,3.16-10.03,.03-.39-.15-.59-.54-.59-.59-.03-1.2,0-1.83,.12-.49,.03-.77-.11-.83-.44-.05-.33,.17-.47,.66-.44,.72,.13,1.44,.17,2.15,.12,.41,0,.61-.2,.61-.59v-7.98Zm-3.35,1.27c.08-.11,.38,.03,.91,.44,1.34,1.21,2.02,2.52,2.05,3.94-.02,.36-.12,.68-.32,.98-.26,.51-.65,.73-1.17,.66-.98-.2-1.3-.85-.98-1.96,.36-1.42,.2-2.77-.49-4.06Zm14.78-1.39c-.03-.52,.28-.75,.93-.69,.57,.02,1.14,.09,1.71,.22,.49,.21,.76,.36,.81,.44,.07,.21-.06,.39-.39,.54-.23,.13-.34,.45-.34,.95,0,.55,.2,.83,.59,.83h.56c.52,.16,.95-.13,1.27-.88,.47-.6,.75-.9,.83-.88,.33,.16,.78,.62,1.37,1.37,.28,.51,.4,.8,.37,.88-.08,.11-.37,.17-.86,.17h-3.52c-.41,0-.61,.2-.61,.59v1.1c0,.41,.21,.61,.64,.61,.59,.2,1.04-.1,1.37-.88,.46-.6,.74-.9,.86-.88,.75,.49,1.35,1.18,1.79,2.08-.11,.33-.45,.43-1,.32h-3.03c-.41,0-.61,.2-.61,.59v1.2c0,.41,.2,.61,.59,.61,.65,.02,1.33,0,2.03-.05,.07-.03,.16-.15,.29-.34,.2-.33,.42-.65,.69-.98,.36-.65,.81-.59,1.37,.2,.57,.6,.92,1.11,1.05,1.52-.11,.29-.45,.39-1,.29h-11.16l-.93,.12c-.49,.03-.76-.08-.81-.34l-.12-.49c.03-.06,.29-.08,.78-.05,.34,.02,.68,.06,1.03,.12h2.86c.41,0,.61-.2,.61-.59v-1.2c0-.41-.2-.61-.59-.61-.95-.05-1.95,.03-3.01,.24-.08-.05-.15-.2-.22-.44l-.07-.49c.02-.08,.27-.11,.76-.07,.67,.13,1.51,.17,2.52,.12,.41,0,.61-.2,.61-.59v-1.1c0-.41-.2-.61-.59-.61-1.48-.03-2.54,0-3.18,.12-.49,.03-.77-.09-.83-.37-.08-.31-.26-.19-.54,.37-.67,1.42-1.52,2.61-2.57,3.57-.51,.33-.62,.12-.34-.61,.39-1.4,.63-2.87,.71-4.4,.1-.49,.39-.69,.88-.61,.72,.15,1.37,.33,1.96,.56,.31,.11,.42,.27,.34,.46,0,.07,.24,.12,.73,.17l.51,.07h2.3c.41,0,.61-.2,.61-.59v-1.71Zm4.33,10.54c.44-.42,.96-.48,1.57-.17,.86,.41,1.37,.88,1.52,1.42-.02,.1-.1,.21-.24,.34-.16,.15-.24,.41-.24,.78v8.24c-.33,1.34-1.07,2.02-2.23,2.06-.62,.07-.95,.07-1,.02s-.08-.32-.1-.81c-.16-.77-.78-1.46-1.86-2.08-.03-.08-.02-.16,.02-.24,.29-.02,.66,0,1.1,.07,.31,.03,.64,.03,1,0,.37-.23,.5-.81,.37-1.74,0-.41-.2-.61-.59-.61h-4.21c-.41,0-.61,.2-.61,.59v3.69c-.21,.99-.94,1.38-2.18,1.15-.34-.13-.52-.36-.54-.69v-11.84c0-.49,.24-.69,.73-.61,.51,.13,1.08,.36,1.71,.69,.16,.08,.44,.12,.83,.12h3.94c.46,.13,.79,0,1-.39Zm-.1,1.69c0-.44-.18-.66-.54-.66h-4.04c-.7-.16-.98,.06-.83,.68v1.2c0,.41,.2,.61,.59,.61h4.21c.41,0,.61-.2,.61-.59v-1.25Zm0,3.08c0-.41-.2-.61-.59-.61h-4.21c-.41,0-.61,.2-.61,.59v1.3c0,.41,.2,.61,.59,.61h4.21c.41,0,.61-.2,.61-.59v-1.3Z" style="fill: #4d4d4d;"/>
        <path d="M93.39,98.3c-.02-.51,.22-.75,.71-.73,.55,.05,1.13,.13,1.74,.24,.37,0,.73,.14,1.05,.42,.15,.41-.1,.72-.73,.93-.26,.73-.09,1.02,.51,.86h4.35c.47,.1,.82-.02,1.03-.37,.65-.93,1.14-1.52,1.47-1.79,.34,.02,.89,.36,1.64,1.03,.64,.56,1.08,1.04,1.32,1.47-.07,.33-.39,.43-.98,.32h-8.81c-.41,0-.61,.2-.61,.59v3.2c.08,1.26-.49,1.8-1.71,1.64-.55-.08-.88-.35-.98-.81v-4.01c0-.41-.2-.61-.59-.61h-8.1l-.81,.15c-.54,.07-.85-.06-.93-.37-.1-.41,.13-.59,.68-.54,.29,0,.61,.03,.95,.1h8.17c.41,0,.61-.2,.61-.59v-1.13Zm-10.4-11.64c.02-.16,.35-.18,1-.05,2.38,.75,3.11,1.93,2.18,3.55-.47,.52-1.04,.66-1.71,.42-.49-.28-.74-.74-.76-1.39,.11-.95-.12-1.79-.71-2.52Zm7.22-1.15c.39-.54,.61-.81,.66-.83,.31,.18,.27,.53-.12,1.05l-3.23,7.58c-.16,.65-.06,1.3,.32,1.96,.62,.85,.72,1.66,.29,2.45-.39,.6-.94,.82-1.64,.66-.73-.42-1.04-1.24-.91-2.45-.08-.83-.42-1.57-1.03-2.2-.47-.36-.73-.58-.76-.66,.02-.1,.27-.18,.76-.24,.29-.02,.59-.06,.88-.15,.11-.07,.26-.24,.44-.51,1.42-2.22,2.86-4.44,4.33-6.65Zm-5.38-2.69c.05-.1,.33-.15,.86-.15,.8-.03,1.48,.14,2.03,.51,.54,.28,.81,.73,.83,1.35,.05,.49-.09,.95-.42,1.37-1.17,.75-1.98,.36-2.42-1.17,0-.26-.09-.59-.27-.98-.41-.52-.61-.83-.61-.93Zm13.11,.15c.06-.51,.35-.73,.86-.66,.54,.1,1.1,.22,1.69,.37,.28,.07,.46,.14,.54,.22,.33,.34,.23,.59-.29,.73-.18,.08-.33,.2-.46,.34-.46,.55-.98,1.11-1.57,1.66-.42,.34-.45,.51-.07,.51h2.13c.41,0,.77-.19,1.08-.56l.61-.81c.36-.77,.82-.87,1.39-.32,1.01,.73,1.66,1.44,1.96,2.1-.08,.15-.38,.22-.91,.22h-4.33c-.41,0-.61,.2-.61,.59v1.35c0,.44,.09,.62,.27,.54,.15-.1,.34-.31,.59-.64,.51-.67,.89-1.1,1.15-1.3,.6,.21,1.28,.73,2.03,1.54,.38,.51,.55,.81,.51,.91-.05,.1-.33,.15-.86,.15h-3.08c-.41,0-.61,.2-.61,.59v1.2c0,.41,.11,.61,.32,.61,.23,0,.51-.2,.83-.59l.66-.81c.34-.72,.82-.75,1.44-.1,.77,.59,1.35,1.21,1.74,1.86-.15,.28-.49,.37-1.03,.27h-3.35c-.41,0-.61,.2-.61,.59v1.3c0,.41,.25,.61,.76,.61,.55,.15,.95,0,1.2-.42,.23-.33,.48-.65,.76-.98,.46-.44,.93-.52,1.42-.24,.42,.28,.89,.69,1.39,1.25,.34,.47,.5,.76,.49,.86-.08,.11-.38,.17-.88,.17h-10.23c-.39,0-.6,.08-.61,.24-.03,.55-.29,.89-.76,1-1.4,.34-2.05-.12-1.93-1.39v-4.53c0-.39-.2-.42-.59-.07-.91,.9-1.75,1.6-2.52,2.1-.1,.02-.19,0-.27-.02-.03-.08,.12-.37,.46-.86,1.63-2.32,2.78-4.93,3.45-7.83,.13-.68,.29-1.37,.47-2.05,.23-.13,.68-.06,1.37,.2,.82,.26,1.47,.55,1.96,.88,.46,.41,.37,.68-.27,.83-.41,.16-.71,.49-.9,.98-.18,.39-.07,.59,.32,.59h1.54c.39,0,.68-.24,.86-.73,.26-.98,.43-1.79,.51-2.45Zm-.71,4.48c0-.44-.18-.66-.54-.66h-1.83c-.41,0-.61,.2-.61,.59v1.3c0,.41,.2,.61,.59,.61h1.79c.41,0,.61-.2,.61-.59v-1.25Zm0,3.08c0-.41-.2-.61-.59-.61h-1.79c-.41,0-.61,.2-.61,.59v1.2c0,.41,.2,.61,.59,.61h1.79c.41,0,.61-.2,.61-.59v-1.2Zm0,3.06c0-.42-.19-.64-.56-.64h-1.81c-.41,0-.61,.2-.61,.59v1.3c0,.41,.2,.61,.59,.61h1.79c.41,0,.61-.2,.61-.59v-1.27Z" style="fill: #4d4d4d;"/>
        <path d="M139.25,94.25c.44-.59,.73-.91,.86-.95,.11,0,.49,.3,1.13,.91,.57,.62,.82,1.08,.76,1.39-.06,.11-.35,.17-.86,.17h-7.41c-.41,0-.61,.26-.61,.78s.2,.81,.59,.81h1.52c.16-.05,.32-.15,.46-.32,.47-.82,.92-1.08,1.35-.78,.36,.1,1.01,.42,1.96,.98,.59,.38,.73,.72,.42,1.03-.64,.13-.87,.49-.71,1.08v4.99c.18,.65-.07,1.17-.73,1.57-.75,.28-1.36,.23-1.83-.15-.05-.08-.1-.24-.15-.49-.02-.26-.22-.39-.61-.39h-10.64c-.39,0-.61,.15-.66,.44-.15,.49-.59,.78-1.32,.88-.98,.21-1.43-.2-1.35-1.22v-7.78c0-.5,.33-.67,.98-.49,.33,.1,.65,.22,.98,.37,.39,.2,.77,.29,1.13,.29h1.49c.39,0,.61-.24,.66-.73,.03-.08,.04-.16,.02-.24,0-.41-.2-.61-.59-.61h-5.68l-1.57,.24c-.07-.06-.12-.24-.17-.51-.1-.36,.15-.52,.73-.49,.33,.02,.65,.06,.98,.12h17.59c.46,.13,.78,0,.98-.39l.32-.49Zm-11.42-10.54c.36-.5,.75-1.01,1.17-1.52,.11-.03,.47,.22,1.08,.76l.37,.49c.31,.33,.39,.62,.24,.88-.08,.07-.37,.1-.86,.1h-5.72c-.51,0-.51,.11,0,.34,.64,.2,.98,.46,1.03,.81-.07,.06-.16,.11-.29,.15-.23,.02-.32,.06-.27,.12,.07,.05,.29,.07,.69,.07h.49c.39,0,.79-.23,1.2-.68,.47-.93,.99-.91,1.54,.05,.21,.29,.38,.59,.51,.88,.03,.13,0,.23-.07,.29-.11,.08-.42,.12-.9,.12h-.61c-.39,0-.6,.24-.64,.73l-.05,.37c-.03,.39,0,.6,.1,.61,.15,0,.41-.23,.78-.68,.41-.46,.64-.69,.71-.71,.46,.2,.91,.72,1.37,1.57,.05,.16,0,.3-.12,.42-.8,.05-1.6,.07-2.4,.05-.39,0-.62,.08-.69,.24-.07,.16,.15,.28,.64,.34,.98,.29,1.4,.89,1.27,1.79-.1,.31-.32,.49-.66,.54-.57,.16-1-.19-1.3-1.05-.31-.36-.71-.29-1.2,.2-.72,.52-1.37,.82-1.96,.9-.67,.08-.97,.08-.91,0,1.16-.64,1.89-1.43,2.2-2.37,.1-.39-.1-.58-.59-.56-.47,.05-.95,.12-1.44,.22-.06-.07-.12-.24-.17-.51-.1-.36,.15-.52,.73-.49l1.13,.12c.39,0,.61-.24,.66-.73v-.37c0-.41-.19-.61-.56-.61-.34-.15-.94,.14-1.79,.86-.39,.24-.59,.56-.59,.95v3.4c0,.41,.2,.61,.59,.61h4.8c.39,0,.62-.02,.69-.05l.61-.88c.37-.46,.61-.68,.71-.68,.21,.05,.52,.3,.93,.76,.51,.55,.73,1.01,.66,1.37-.08,.08-.37,.12-.86,.12h-7.54c-.39,0-.61,.11-.66,.34-.15,.44-.46,.68-.93,.73-1.16,.26-1.66-.09-1.52-1.05v-9.42c0-.52,.25-.72,.76-.59,.39,.11,.78,.26,1.17,.44,.39,.18,.76,.27,1.1,.27h4.67c.39,0,.62-.02,.69-.05Zm-4.99,1.39c.13-.46,.03-.69-.29-.69-.39,0-.59,.2-.59,.59v1.27c0,.52,.14,.54,.42,.05l.46-1.22Zm3.45,13.58c.16-.44,.06-.66-.32-.66-.57-.02-1.15,0-1.74,.02-.08,.05-.12,.27-.12,.66v1.52c0,.41,.26,.43,.78,.07,.65-.41,1.12-.95,1.39-1.61Zm4.5,0c0-.44-.18-.66-.54-.66h-.95c-.39,0-.69,.24-.91,.73-.82,1.29-2.05,2.1-3.69,2.42-.39,.11-.59,.33-.59,.66,0,.36,.2,.54,.59,.54h10.67c.41,0,.61-.16,.61-.49s-.2-.51-.59-.51c-1.35,.1-2.5-.02-3.45-.37-.91-.52-1.3-1.3-1.15-2.32Zm5.19,4.97c0-.42-.2-.64-.59-.64h-10.67c-.41,0-.61,.2-.61,.59,0,.42,.2,.64,.59,.64h10.67c.41,0,.61-.2,.61-.59Zm-5.19-7.07c0-.54-.2-.81-.59-.81h-.61c-.39,0-.62,.24-.68,.73-.05,.57,.11,.86,.46,.86h.81c.41,0,.61-.26,.61-.78Zm6.92-7.88c.24-.41,.52-.48,.83-.22,.9,.46,1.54,.99,1.93,1.59-.08,.29-.25,.43-.51,.42-.18,.08-.52,.38-1.03,.88-1.09,.78-1.14,1.05-.15,.81l.78-.07c.49,0,.75,.04,.78,.12-.05,.08-.32,.27-.81,.56-.67,.49-1.04,1.17-1.1,2.05-.83,.03-1.79-.25-2.89-.86-.36-.21-.8-.25-1.32-.12-1.7,.46-3.25,.63-4.67,.51-.07-.05-.08-.13-.05-.24,.06-.1,.35-.2,.86-.29,1.24-.33,2.19-.62,2.86-.88,.39-.15,.4-.44,.02-.88-.44-.59-.72-1.11-.83-1.57-.11-.39-.42-.56-.91-.51-.49,.07-.77-.04-.83-.32-.08-.34,.1-.51,.54-.49,.33,0,.65,.02,.98,.07h4.43c.39,0,.75-.19,1.08-.56Zm-5.7-5.23c0-.57,.26-.74,.78-.51,.24,.08,.49,.19,.73,.32,.52,.33,.98,.46,1.37,.39,.38,0,.64-.04,.78-.12,.54-.57,.95-.74,1.25-.51,.64,.28,1.14,.66,1.52,1.15,0,.1-.07,.22-.2,.37-.18,.13-.27,.37-.27,.71s.04,.58,.12,.66c.11,.1,.42,.15,.91,.15,.29,.03,.59-.09,.88-.37,.16-.42,.35-.85,.56-1.27,.24-.02,.37,.2,.37,.66,.08,.55,.26,.89,.54,1,.31,.2,.43,.52,.37,.98-.21,.59-.75,.92-1.61,1-1.48,.26-2.57,.24-3.25-.07-.55-.26-.88-.75-.98-1.47v-1.59c0-.41-.27-.61-.81-.61s-.84,.24-.86,.73c-.05,1.57-1.08,2.68-3.08,3.33-.65,.13-.97,.15-.95,.05,.03-.08,.15-.2,.34-.37,.85-.52,1.35-1.49,1.49-2.91v-1.69Zm4.79,7.05c.29-.41,.24-.61-.15-.61h-3.3c-.41,0-.42,.22-.05,.66,.54,.54,1.01,.89,1.42,1.05,.39,.18,.85,.07,1.37-.34l.71-.76Zm-.83,8.22c0-.47-.2-.71-.61-.71h-1.64c-.41,0-.61,.11-.61,.34-.11,.52,.17,.82,.86,.88l1.39,.07c.41,0,.61-.2,.61-.59Z" style="fill: #4d4d4d;"/>
        <path d="M165.53,82.84c-.02-.51,.21-.75,.68-.73,.62,.05,1.26,.13,1.93,.24,.5,.07,.79,.26,.86,.59-.11,.26-.26,.4-.44,.42-.29,.13-.39,.4-.29,.81v.76c0,.41,.2,.61,.59,.61h3.45c.44,.13,.78,0,1.03-.39,.64-.91,1.14-1.46,1.52-1.64,1.01,.54,1.87,1.31,2.57,2.32-.02,.34-.33,.46-.93,.34h-8.81c-.36,0-.33,.09,.1,.27,.81,.2,1.35,.42,1.59,.68,.13,.2,0,.36-.39,.49-.1,.02-.21,.1-.34,.24-.28,.47-.24,.71,.12,.71h3.2c.39,0,.63-.02,.71-.07,.29-.41,.64-.85,1.05-1.32,.46-.44,.93-.52,1.42-.24,1.03,.75,1.66,1.44,1.91,2.08-.15,.2-.48,.26-1,.2h-5.58c-.41,0-.44,.25-.1,.76,.42,.6,.98,1.18,1.66,1.74,.39,.29,.74,.2,1.05-.29l.51-1.03c.21-.54,.56-.73,1.05-.59,.55,.2,1.11,.46,1.66,.78,.46,.41,.43,.66-.07,.76-.16-.02-.33,.03-.51,.15-.34,.28-.94,.59-1.79,.93-.34,.13-.24,.35,.29,.66,.82,.44,1.74,.75,2.76,.93,.54,.1,.84,.18,.91,.24,.02,.1-.23,.29-.73,.56-.49,.38-.81,.78-.95,1.22-.03,.83-.42,.95-1.17,.37l-.73-.39c-.52-.33-.78-.29-.78,.1v2.57c.16,.78-.09,1.27-.76,1.47-.96,.28-1.53,.07-1.71-.61-.02-.36-.21-.54-.59-.54h-.71c-.41,0-.61,.2-.61,.59v4.21c-.08,1.44-.88,2.26-2.4,2.47-.31,.1-.65,.1-1.03,0-.05-.07-.03-.38,.05-.93,0-.38-.16-.78-.49-1.22-.44-.47-.65-.74-.64-.81,.06-.08,.34-.07,.83,.02,.83,.28,1.21-.02,1.15-.91v-2.81c0-.41-.2-.61-.59-.61h-.73c-.39,0-.62,.09-.68,.27-.57,.72-1.3,.82-2.2,.29-.2-.24-.26-.61-.2-1.1v-3.35c0-.41-.25-.5-.76-.27l-.61,.24c-.39,.15-.63,.46-.71,.95-.29,2.76-1.26,5.28-2.91,7.58-.77,.93-1.5,1.63-2.2,2.1-.51,.28-.79,.4-.86,.37-.02-.08,.13-.37,.44-.86,1.74-2.53,2.77-5.51,3.08-8.95,.03-.39-.15-.36-.54,.1-.44,.55-.86,1.13-1.25,1.74-.15,.49-.25,.76-.32,.81-.15,.13-.35,.04-.61-.27-.39-.64-.72-1.24-.98-1.81-.23-.54-.06-.91,.51-1.1,.88-.24,1.8-.59,2.76-1.03,.37-.16,.58-.5,.61-1.03,0-.6,.02-1.24,.07-1.91v-6.65c0-.57,.26-.76,.78-.56,.55,.23,1.11,.48,1.66,.76,.24,.15,.56,.22,.95,.22h3.55c.41,0,.61-.2,.61-.59v-2.1Zm-11.03,4.72c.05-.11,.33-.04,.83,.22,.65,.34,1.18,.79,1.59,1.35,.78,1.08,.73,2.05-.17,2.94-.62,.38-1.17,.37-1.66-.02-.49-.47-.55-1.33-.2-2.57,.03-.64-.1-1.27-.39-1.91Zm8.44,13.38c.24-.49,.59-.64,1.03-.46,.65,.33,1.21,.63,1.66,.91,.26,.13,.36,.33,.29,.59-.08,.08-.24,.15-.49,.22-.24,.03-.53,.17-.86,.42-1.61,1.24-3.42,2.09-5.43,2.54-.49,.1-.75,.11-.78,.05,0-.07,.24-.24,.73-.51,1.47-.83,2.75-2.08,3.84-3.74Zm1.83-10.91c.31-.55,.29-.83-.07-.83h-3.52c-.41,0-.61,.2-.61,.59,.02,1.55-.03,2.94-.15,4.16-.03,.41,.2,.42,.71,.05l.61-.49c.33-.28,.41-.54,.24-.78-.08-.2-.15-.46-.2-.78-.1-.65-.42-1.27-.95-1.86,.02-.11,.28-.15,.78-.1,.85,.2,1.5,.53,1.96,1,.16,.24,.37,.2,.64-.15l.56-.81Zm1.35-3.23c.07-.42-.1-.64-.49-.64h-4.45c-.41,0-.61,.2-.61,.59v1.2c0,.41,.2,.61,.59,.61h3.77c.39,0,.69-.24,.9-.73,.13-.34,.23-.68,.29-1.03Zm4.92,7.39c0-.46-.2-.68-.59-.68h-4.92c-.7-.16-.98,.07-.83,.68v.81c0,.41,.2,.61,.59,.61h5.14c.41,0,.61-.2,.61-.59v-.83Zm0,2.67c0-.41-.2-.61-.59-.61h-5.14c-.41,0-.61,.2-.61,.59v.88c0,.41,.2,.61,.59,.61h5.14c.41,0,.61-.2,.61-.59v-.88Zm-1.35-6.87c-.16-.52-.5-.78-1-.78-.54,0-.97,.24-1.3,.73-.6,.82-1.24,1.57-1.91,2.25-.46,.46-.48,.68-.07,.68h4.67c.39,0,.64-.05,.76-.15,.11-.11,0-.43-.32-.95-.31-.59-.59-1.18-.83-1.79Zm1.44,11.67c-.77-.51-.81-.76-.12-.76,1.5,.1,2.8,.49,3.91,1.17,.75,.47,1.18,1.08,1.3,1.83,.07,.44-.1,.86-.49,1.25-.67,.5-1.39,.33-2.18-.51-.55-1.16-1.36-2.15-2.42-2.98Z" style="fill: #4d4d4d;"/>
      </g>
      <g style="opacity: .68;">
        <path d="M11.83,69.91h-1.89c-.63-1.87-1.08-3.11-1.37-3.71-.36-.76-.78-1.25-1.24-1.48-.36-.18-1.02-.26-1.96-.26-.55,0-1.05,0-1.48,.02,0,2.1,.04,3.91,.12,5.43h-1.82c.1-2.02,.15-4.25,.15-6.68,0-2.29-.05-4.31-.15-6.04h1.38c.29,0,.66,0,1.11-.03,.45-.02,.96-.03,1.54-.03,2.85,0,4.28,.98,4.28,2.95,0,1.63-.8,2.78-2.4,3.45v.1c.72,.21,1.3,.71,1.74,1.49,.37,.65,1.03,2.25,1.98,4.79Zm-2.99-9.16c0-1.55-1.05-2.33-3.15-2.33-.75,0-1.38,.04-1.89,.13,.05,1.13,.07,2.67,.07,4.62,.39,.01,.77,.02,1.12,.02,2.56,0,3.84-.81,3.84-2.44Z" style="fill: #4d4d4d;"/>
        <path d="M28.16,57.19c-.03,1.23-.05,2.38-.06,3.45-.01,1.07-.02,2.06-.02,2.99,0,4.36-1.72,6.55-5.17,6.55-.9,0-1.67-.13-2.31-.39-.64-.26-1.17-.65-1.58-1.18-.41-.53-.72-1.2-.91-2.01-.19-.81-.29-1.76-.29-2.86,0-.96,0-1.99-.02-3.07-.01-1.08-.03-2.24-.06-3.47h1.86c-.08,2.48-.12,4.43-.12,5.83,0,1.13,.06,2.06,.17,2.77,.11,.71,.31,1.31,.59,1.78,.28,.48,.64,.81,1.07,1.01,.43,.2,.98,.3,1.64,.3,.7,0,1.26-.1,1.7-.3,.44-.2,.79-.53,1.06-.99,.27-.46,.47-1.05,.59-1.77,.12-.72,.18-1.66,.18-2.83,0-.69-.01-1.52-.03-2.48-.02-.96-.06-2.07-.1-3.34h1.82Z" style="fill: #4d4d4d;"/>
        <path d="M39.81,69.91h-1.86c.1-2.11,.15-4.34,.15-6.68s-.05-4.32-.15-6.04h1.86c-.09,1.78-.14,3.79-.14,6.04,0,2.36,.05,4.59,.14,6.68Z" style="fill: #4d4d4d;"/>
        <path d="M81.53,68.57l-.06,1.44h-7.69c.08-1.61,.12-3.84,.12-6.68,0-2.45-.04-4.46-.12-6.04h1.82c-.08,1.32-.12,3.33-.12,6.04,0,2.23-.04,4.01-.11,5.35,1.95,0,4.01-.04,6.16-.11Z" style="fill: #4d4d4d;"/>
        <path d="M88.44,70h-1.86c.1-2.11,.15-4.34,.15-6.68s-.05-4.32-.15-6.04h1.86c-.09,1.78-.14,3.79-.14,6.04,0,2.36,.05,4.59,.14,6.68Z" style="fill: #4d4d4d;"/>
        <path d="M106.47,70h-1.37c0-.11-1.07-1.67-3.2-4.68-2.23-3.16-3.51-5.15-3.82-5.98h-.1c.12,1.57,.18,2.91,.18,4.04,0,2.19,.05,4.4,.15,6.62h-1.64c.11-2.12,.17-4.34,.17-6.68s-.06-4.31-.17-6.04h1.88c0,.18,.98,1.67,2.95,4.46,2.06,2.93,3.23,4.84,3.52,5.73h.1c-.11-1.59-.17-2.94-.17-4.04,0-2.41-.05-4.46-.14-6.14h1.67c-.11,1.73-.17,3.74-.17,6.04s.06,4.57,.17,6.68Z" style="fill: #4d4d4d;"/>
        <path d="M121.56,69.74c-1.07,.35-2.15,.53-3.23,.53-2.29,0-4.01-.61-5.17-1.83s-1.74-2.73-1.74-4.53,.63-3.4,1.9-4.76c1.26-1.36,3.02-2.04,5.26-2.04,.81,0,1.57,.09,2.3,.28l-.24,1.62c-1.07-.26-1.94-.39-2.6-.39-1.58,0-2.78,.48-3.62,1.43-.84,.95-1.26,2.14-1.26,3.55s.48,2.66,1.44,3.73c.96,1.07,2.32,1.6,4.07,1.6,.32,0,.8-.05,1.44-.15-.11-.68-.17-1.47-.17-2.36,0-.76-.05-1.49-.14-2.22h1.78c-.05,.86-.08,1.77-.08,2.73,0,.41,.03,1.35,.08,2.8Z" style="fill: #4d4d4d;"/>
        <path d="M160.04,68.41l-.13,1.46c-.8,.24-1.67,.36-2.62,.36-2.24,0-3.92-.61-5.05-1.84-1.13-1.23-1.69-2.73-1.69-4.5s.63-3.46,1.89-4.8c1.26-1.34,2.95-2.02,5.07-2.02,.59,0,1.2,.09,1.86,.26l-.27,1.55c-.75-.23-1.42-.35-2-.35-1.58,0-2.77,.49-3.59,1.47-.81,.98-1.22,2.17-1.22,3.59s.47,2.67,1.41,3.7c.94,1.03,2.23,1.54,3.89,1.54,.63,0,1.45-.14,2.46-.42Z" style="fill: #4d4d4d;"/>
        <path d="M173.61,68.52l-.06,1.44h-7.69c.08-1.61,.12-3.84,.12-6.68,0-2.45-.04-4.46-.12-6.04h1.82c-.08,1.32-.12,3.33-.12,6.04,0,2.23-.04,4.01-.11,5.35,1.95,0,4.01-.04,6.16-.11Z" style="fill: #4d4d4d;"/>
        <path d="M181.68,69.96h-1.86c.1-2.11,.15-4.34,.15-6.68s-.05-4.32-.15-6.04h1.86c-.09,1.78-.14,3.79-.14,6.04,0,2.36,.05,4.59,.14,6.68Z" style="fill: #4d4d4d;"/>
        <path d="M198.64,69.96h-1.37c0-.11-1.07-1.67-3.2-4.68-2.23-3.16-3.51-5.15-3.82-5.98h-.1c.12,1.57,.18,2.91,.18,4.04,0,2.19,.05,4.4,.15,6.62h-1.64c.11-2.12,.17-4.34,.17-6.68s-.06-4.31-.17-6.04h1.88c0,.18,.98,1.67,2.95,4.46,2.06,2.93,3.23,4.84,3.52,5.73h.1c-.11-1.59-.17-2.94-.17-4.04,0-2.41-.05-4.46-.14-6.14h1.67c-.11,1.73-.17,3.74-.17,6.04s.06,4.57,.17,6.68Z" style="fill: #4d4d4d;"/>
        <path d="M207.15,69.96h-1.86c.1-2.11,.15-4.34,.15-6.68s-.05-4.32-.15-6.04h1.86c-.09,1.78-.14,3.79-.14,6.04,0,2.36,.05,4.59,.14,6.68Z" style="fill: #4d4d4d;"/>
        <path d="M223.03,68.41l-.13,1.46c-.8,.24-1.67,.36-2.62,.36-2.24,0-3.92-.61-5.05-1.84-1.13-1.23-1.69-2.73-1.69-4.5s.63-3.46,1.89-4.8c1.26-1.34,2.95-2.02,5.07-2.02,.59,0,1.2,.09,1.86,.26l-.27,1.55c-.75-.23-1.42-.35-2-.35-1.58,0-2.77,.49-3.59,1.47-.81,.98-1.22,2.17-1.22,3.59s.47,2.67,1.41,3.7c.94,1.03,2.23,1.54,3.89,1.54,.63,0,1.45-.14,2.46-.42Z" style="fill: #4d4d4d;"/>
      </g>
    </g>
  </g>
</svg>