<?xml version="1.0" encoding="UTF-8"?>
<svg id="b" data-name="圖層 2" xmlns="http://www.w3.org/2000/svg" width="28.65" height="28.65" viewBox="0 0 28.65 28.65">
  <g id="c" data-name="圖層 1">
    <g>
      <path d="M22.34,28.65H6.31c-3.48,0-6.31-2.83-6.31-6.31V6.31C0,2.83,2.83,0,6.31,0H22.34c3.48,0,6.31,2.83,6.31,6.31V22.34c0,3.48-2.83,6.31-6.31,6.31ZM6.31,1.85C3.85,1.85,1.85,3.85,1.85,6.31V22.34c0,2.46,2,4.46,4.46,4.46H22.34c2.46,0,4.46-2,4.46-4.46V6.31c0-2.46-2-4.46-4.46-4.46H6.31Z" style="fill: #191f61;"/>
      <path d="M14.33,21.36c-3.88,0-7.04-3.16-7.04-7.04s3.16-7.04,7.04-7.04,7.04,3.16,7.04,7.04-3.16,7.04-7.04,7.04Zm0-12.22c-2.86,0-5.19,2.33-5.19,5.19s2.33,5.19,5.19,5.19,5.19-2.33,5.19-5.19-2.33-5.19-5.19-5.19Z" style="fill: #191f61;"/>
      <path d="M22.49,7.47c0,.72-.59,1.31-1.31,1.31s-1.31-.59-1.31-1.31,.59-1.31,1.31-1.31,1.31,.59,1.31,1.31Z" style="fill: #191f61;"/>
    </g>
  </g>
</svg>