<?xml version="1.0" encoding="UTF-8"?>
<svg id="b" data-name="圖層 2" xmlns="http://www.w3.org/2000/svg" width="30.11" height="29.1" viewBox="0 0 30.11 29.1">
  <g id="c" data-name="圖層 1">
    <path d="M27.59,5.7S19.07-4.82,5.81,2.73c0,0-8.06,4.67-5.2,13.7,0,0,2.57,6.97,11.53,8.17,0,0,2.54,.1,1.65,2.74-.89,2.63,1.26,1.56,1.26,1.56,0,0,7.87-3.77,12.54-9.81,4.67-6.04,1.73-11.26,0-13.38ZM9.06,16.68h-3.17c-.35,0-.64-.28-.64-.64v-5.96c0-.4,.32-.72,.72-.72s.72,.32,.72,.72v5.13c0,.05,.04,.09,.09,.09h2.27c.38,0,.69,.31,.69,.69s-.31,.69-.69,.69Zm2.91-.46c0,.4-.32,.72-.72,.72s-.72-.32-.72-.72v-6.14c0-.39,.32-.72,.72-.72s.72,.32,.72,.72v6.14Zm7.24-.26c0,.54-.44,.98-.98,.98-.26,0-.49-.13-.63-.34l-2.9-4.46c-.03-.05-.11-.03-.11,.03v4.04c0,.4-.32,.72-.72,.72s-.72-.32-.72-.72v-5.85c0-.55,.45-1,1-1,.24,0,.46,.12,.59,.32l2.92,4.49c.03,.05,.11,.03,.11-.03v-4.06c0-.4,.32-.72,.72-.72s.72,.32,.72,.72v5.88Zm2.79-3.55h2.16c.38,0,.69,.31,.69,.69s-.31,.69-.69,.69h-2.16s-.07,.03-.07,.07v1.39s.03,.07,.07,.07h2.14c.39,0,.71,.32,.71,.71s-.32,.71-.71,.71h-3.02c-.34,0-.62-.28-.62-.62v-6.03c0-.34,.28-.62,.62-.62h3.03c.39,0,.71,.32,.71,.71s-.32,.71-.71,.71h-2.15s-.07,.03-.07,.07v1.4s.03,.07,.07,.07Z" style="fill: #191f61;"/>
  </g>
</svg>