<?xml version="1.0" encoding="UTF-8"?>
<svg id="b" data-name="圖層 2" xmlns="http://www.w3.org/2000/svg" width="607.38" height="733.76" xmlns:xlink="http://www.w3.org/1999/xlink" viewBox="0 0 607.38 733.76">
  <defs>
    <linearGradient id="d" data-name="未命名漸層 43" x1="397.72" y1=".11" x2="504.07" y2="862.87" gradientTransform="matrix(1, 0, 0, 1, 0, 0)" gradientUnits="userSpaceOnUse">
      <stop offset="0" stop-color="#83b9e4"/>
      <stop offset=".03" stop-color="#76addc"/>
      <stop offset=".11" stop-color="#528cc7"/>
      <stop offset=".2" stop-color="#3470b5"/>
      <stop offset=".29" stop-color="#1d5ba8"/>
      <stop offset=".39" stop-color="#0c4b9e"/>
      <stop offset=".5" stop-color="#034298"/>
      <stop offset=".64" stop-color="#004097"/>
      <stop offset=".77" stop-color="#023f96"/>
      <stop offset=".84" stop-color="#0a3e96"/>
      <stop offset=".91" stop-color="#193d95"/>
      <stop offset=".96" stop-color="#2d3b93"/>
      <stop offset="1" stop-color="#413992"/>
    </linearGradient>
    <linearGradient id="e" data-name="未命名漸層 51" x1="175.93" y1="73.12" x2="545.36" y2="735.11" gradientTransform="matrix(1, 0, 0, 1, 0, 0)" gradientUnits="userSpaceOnUse">
      <stop offset="0" stop-color="#83b9e4"/>
      <stop offset=".03" stop-color="#76b6dd"/>
      <stop offset=".11" stop-color="#52b0cb"/>
      <stop offset=".2" stop-color="#34abbc"/>
      <stop offset=".29" stop-color="#1da7b0"/>
      <stop offset=".39" stop-color="#0ca4a8"/>
      <stop offset=".5" stop-color="#03a2a3"/>
      <stop offset=".64" stop-color="#00a2a2"/>
      <stop offset="1" stop-color="#006e5a"/>
    </linearGradient>
    <linearGradient id="f" data-name="未命名漸層 43" x1="297.2" y1="90.72" x2="371.08" y2="937.42" xlink:href="#d"/>
    <linearGradient id="g" data-name="未命名漸層 51" x1="128.63" y1="104.42" x2="495.9" y2="762.53" xlink:href="#e"/>
  </defs>
  <g id="c" data-name="圖層 2">
    <g>
      <path d="M530.26,52.8c-20.12-15.31-40.83-27.52-61.54-36.28C442.79,5.56,416.76,0,391.37,0c-14.44,0-28.9,1.81-42.99,5.38-33.64,8.52-58.77,21.38-76.84,39.31-15.27,15.15-26.04,34.39-33.89,60.55l-.66,2.19,2.26-.39c12.6-2.2,25.36-4.14,37.94-5.77l.75-.1,.34-.67c6.01-11.98,13.33-23.25,21.16-32.61,11.3-13.49,24.69-24.32,38.92-31.51l-21.63,44.35,1.37-.51c2.83-1,5.65-1.93,8.46-2.8l22.27-45.66c2.55-.93,5.13-1.74,7.66-2.41,1.11-.29,2.28-.58,3.51-.87l-22.31,45.74c3.13-.82,6.24-1.57,9.33-2.26l22.09-45.3c3.3-.55,6.73-.99,10.22-1.34l-21.71,44.5c3.01-.54,5.98-1.02,8.93-1.45l21.28-43.63c2.56-.12,5.16-.18,7.72-.18,.64,0,1.28,0,1.93,.01l-20.73,42.51c2.91-.31,5.78-.57,8.61-.79l20.22-41.46c2.94,.17,6.02,.43,9.19,.78l-19.56,40.1c2.83-.12,5.61-.18,8.33-.22l18.97-38.89c3.06,.46,5.97,.96,8.83,1.52l-18.25,37.41c2.77,.06,5.47,.15,8.09,.28l17.57-36.03c2.87,.68,5.72,1.42,8.49,2.21l-16.79,34.42c2.73,.22,5.36,.47,7.86,.74l16.1-33.01c2.63,.85,5.33,1.79,8.19,2.84l-15.26,31.29c2.76,.39,5.31,.8,7.64,1.2l14.54-29.82c3.21,1.3,6.25,2.6,9.23,3.96l-13.62,27.85c3.76,.84,5.8,1.42,5.8,1.42l1.56,.34,12.93-26.44c2.29,1.12,4.68,2.31,7.05,3.57l.05,.03c28.72,13.82,60.47,31.95,92.27,56.03-.21-.26-20.29-27.61-54.52-53.68Z" style="fill: url(#d);"/>
      <path d="M469.83,89.92c-1.71-.11-3.46-.22-5.31-.32l5.07-10.37-.91-.26s-2.27-.63-6.44-1.52l-5.76,11.77c-3.52-.14-7.18-.26-10.93-.34l6.5-13.32c-2.34-.38-4.91-.76-7.67-1.13l-6.98,14.31c-3.33-.04-6.46-.06-9.54-.06l7.46-15.28c-2.52-.25-5.15-.47-7.9-.67l-7.8,16c-3.17,.03-6.4,.07-9.64,.14l8.12-16.64c-2.63-.1-5.34-.17-8.12-.2l-8.31,17.03c-3.12,.08-6.33,.18-9.72,.3l8.42-17.27c-2.74,.06-5.53,.16-8.37,.31l-8.43,17.29c-3.28,.14-6.56,.29-9.79,.45l8.32-17.05c-2.84,.25-5.73,.55-8.66,.9l-8.1,16.6c-3.27,.18-6.57,.38-9.86,.59l7.69-15.77c-2.97,.47-5.96,.99-8.99,1.57l-7.2,14.76c-3.28,.23-6.55,.46-9.92,.72l6.43-13.18c-3.11,.74-6.25,1.55-9.4,2.42l-5.57,11.43c-3.38,.27-6.72,.56-9.98,.84l4.33-8.87c-2.93,.96-5.87,1.98-8.82,3.08l-1.12,.45-2.99,6.13c-9.65,.91-15.46,1.56-15.52,1.57-5.74,.64-11.63,1.4-17.32,2.14l-.27,.04-35.8,5.49,.03-.11-2.26,.39c-49.91,8.7-93.51,21.08-129.61,36.8-32.25,14.04-59.46,36.97-78.69,66.3C12.07,235.41,1.59,268.13,.17,301.98c-1.44,34.16,6.51,67.81,22.97,97.34,8.71,15.61,19.76,30.01,32.85,42.8,13.78,13.46,29.92,25.22,47.95,34.96l1.43,.77,.57-1.53c1.24-3.34,2.42-5.75,3.38-7.68,.42-.85,.78-1.59,1.07-2.25,3.86-8.82,10.18-20.71,18.27-34.37l.66-1.12-1.06-.75c-26.79-19.13-47.99-38.9-63.01-58.76-8.62-11.4-14.77-24.3-18.33-38.43l71.26,73.65s-.79-8.69-1.04-12.27l-72.8-75.2c-.59-5.04-.82-10.13-.69-15.18l72.75,75.15c-.1-3.79-.13-7.54-.1-11.25l-71.87-74.23c.5-3.9,1.26-7.85,2.31-11.98l69.97,72.28c.18-3.53,.42-7.03,.71-10.48l-68.21-70.45c.04-.14,.07-.27,.11-.41,.12-.44,.22-.85,.37-1.24,.93-2.55,2.05-5.34,3.42-8.51l65.65,67.81c.42-3.36,.9-6.68,1.41-9.95l-63.53-65.62c1.41-2.87,3.03-5.91,4.84-9.08l60.8,62.8c.63-3.19,1.29-6.34,2-9.44l-58.55-60.48c1.83-2.9,3.63-5.58,5.45-8.14l55.82,57.66c.83-3.1,1.7-6.13,2.6-9.13l-53.36-55.12c1.53-1.93,3.15-3.9,4.85-5.86l51.09,52.77c.93-2.82,1.89-5.59,2.88-8.32l-48.74-50.34c2.24-2.39,4.54-4.7,6.84-6.91l45.71,47.22c1.1-2.76,2.23-5.46,3.38-8.11l-43.09-44.51c2.41-2.12,4.93-4.23,7.54-6.3l39.9,41.21c1.23-2.61,2.48-5.16,3.73-7.64l-37.23-38.46c2.55-1.87,5.3-3.78,8.2-5.71l33.87,34.98c1.35-2.47,2.71-4.88,4.06-7.21l-31.18-32.21c2.56-1.57,5.42-3.22,8.82-5.11l27.64,28.55c1.47-2.36,2.94-4.64,4.39-6.83l-24.76-25.58c3.51-1.82,6.46-3.28,9.3-4.61l21.17,21.87c1.61-2.27,3.2-4.44,4.73-6.48l-18.16-18.75c3.57-1.54,6.76-2.85,9.86-4.06l14.45,14.92c1.81-2.24,3.51-4.27,5.09-6.1l-11.41-11.78c3.61-1.29,7.05-2.45,10.46-3.53l7.64,7.89c2.9-3.06,5.45-5.53,5.45-5.53l-4.71-4.9c.24-.07,.47-.15,.7-.22,1.59-.49,3.23-1.01,4.9-1.46,7.85-2,16.62-4.09,27.61-6.58,10.75-2.43,22.03-4.83,33.51-7.13,36.17-7.25,77.18-14.21,121.91-20.71l1.7-.25c73.69-10.66,133.57-18.07,134.17-18.13-.2-.02-20.55-3.28-52.68-4.27Z" style="fill: url(#e);"/>
      <path d="M425.54,663.16c2.21-1.1,4.6-2.31,7.03-3.53l.03,8.93c2.42-.22,5.05-.51,7.89-.87l-.05-12.08c2.26-1.16,4.62-2.37,7.03-3.62l.06,14.71c2.52-.39,5.15-.83,7.89-1.34l-.07-17.48c2.29-1.2,4.64-2.44,7.07-3.72l.07,19.8c.49-.1,.98-.21,1.48-.32,2.05-.45,4.2-.94,6.4-1.48l-.08-22.2c2.13-1.14,4.42-2.38,7.05-3.81l.09,24.19c2.55-.69,5.19-1.45,7.88-2.27l-.1-26.22c2.28-1.25,4.64-2.56,7.05-3.9l.11,27.87c2.58-.86,5.21-1.78,7.88-2.75l-.11-29.53c2.37-1.34,4.73-2.67,7.05-4l.12,30.84c2.59-1.03,5.22-2.11,7.88-3.26l-.12-32.12c2.38-1.38,4.74-2.76,7.07-4.13l.09,33.09c2.62-1.22,5.26-2.5,7.92-3.84l-.13-33.93c2.48-1.49,4.81-2.9,7.06-4.27l.17,34.48c2.6-1.41,5.21-2.88,7.83-4.42l-.13-34.92c2.51-1.56,4.84-3.03,7.06-4.44l.13,35.08c2.62-1.65,5.25-3.36,7.87-5.14l-.13-35.02c2.58-1.69,4.91-3.23,7.06-4.67l.13,34.72c.38-.28,.77-.55,1.15-.83,2.29-1.69,4.53-3.34,6.72-4.95l-.13-34.33c5.83-4.06,11.2-7.97,16.03-11.66,2.04-1.56,3.78-3.48,5.13-5.68-.76,.43-78.4,42.95-220.52,95.82-9.02,3.35-17.51,6.46-25.97,9.51l-1.09,.39c-4.81,1.73-8.87,3.18-12.68,4.52l-.05,.02-.05,.02c-.21,.09-20.61,8.87-50.56,13.29l27.06-23.82c-2.86-.97-5.68-2-8.46-3.07l-32.38,28.5c-5.37,.47-10.82,.75-16.25,.84l38.2-33.62c-2.74-1.2-5.43-2.44-8.08-3.72l-42.31,37.24c-4.15-.17-8.58-.52-13.43-1.05l46.46-40.9c-2.48-1.33-4.93-2.68-7.33-4.06l-49.46,43.54c-3.77-.8-7.58-1.79-11.56-3.01l52.13-45.89c-2.33-1.47-4.63-2.96-6.87-4.47l-53.96,47.5c-2.5-.96-4.95-2-7.42-3.15l55.22-48.61c-2.25-1.6-4.46-3.22-6.62-4.85l-56.19,49.46c-3.29-1.85-6.14-3.64-8.65-5.41l57.01-50.19c-2.1-1.7-4.15-3.4-6.14-5.11l-57.15,50.3c-2.75-2.32-5.15-4.56-7.28-6.78l56.95-50.13c-2.03-1.86-4.01-3.7-5.92-5.54l-56.28,49.54c-2.08-2.6-3.99-5.26-5.71-7.93l55.06-48.47c-1.89-1.93-3.71-3.84-5.46-5.71l-53.67,47.24c-1.57-2.95-3.02-6.02-4.4-9.32l51.43-45.27c-1.77-2.02-3.49-4.02-5.14-5.99l-49.3,43.39c-1.14-3.38-2.16-6.9-3.04-10.51l46.09-40.57c-1.81-2.3-3.53-4.53-5.15-6.7l-42.92,37.77c-.64-3.63-1.16-7.35-1.56-11.1l38.95-34.28c-1.65-2.34-3.18-4.58-4.59-6.68l-35.15,30.94c-.22-4.22-.3-8.5-.25-12.77l30.06-26.46c-1.71-2.76-3.08-5.09-4.11-6.9l-25.55,22.49c.83-13.54,2.73-25.01,4.24-32.45,1.06-5.25,2.49-10.27,4.23-14.91,1.23-3.28,2.56-6.64,3.95-9.99,5.36-12.91,11.74-25.88,18.96-38.53,7.62-13.36,14.17-22.8,16.05-25.31,3.08-4.1,19.27-26.61,36.11-67,20.79-49.87,33.58-104.95,38.02-163.72,1.78-23.57,5.67-45.05,12.05-65.42l-1.83,.32c-11.51,2.3-22.38,4.51-33.15,6.94l-1.48,.51c-1.64,8.06-2.78,14.35-4.18,21.79-.55,2.93-1,5.98-1.35,9.07-.11,.96-.22,1.95-.35,2.96l-15.99-16.54s-2.6,2.53-5.48,5.57l20.12,20.79c-.59,3.93-1.26,8.04-2.01,12.26l-24.8-25.62c-1.57,1.83-3.28,3.87-5.08,6.12l28.11,29.03c-.76,3.89-1.57,7.82-2.42,11.74l-31.82-32.87c-1.53,2.05-3.1,4.21-4.71,6.5l34.45,35.58c-.86,3.68-1.79,7.49-2.77,11.35l-37.35-38.58c-1.44,2.2-2.9,4.48-4.37,6.86l39.38,40.68c-.94,3.46-1.97,7.16-3.09,11.03l-41.53-42.89c-1.35,2.35-2.69,4.76-4.03,7.25l42.96,44.37c-1.06,3.46-2.19,7.05-3.37,10.7l-44.37-45.83c-1.24,2.5-2.47,5.07-3.69,7.69l45.21,46.7c-1.12,3.3-2.32,6.71-3.63,10.34l-45.86-47.37c-1.13,2.67-2.24,5.39-3.32,8.17l46.11,47.63c-1.15,3.05-2.42,6.34-3.86,9.98l-45.98-47.49c-.96,2.75-1.89,5.55-2.8,8.4l45.56,47.06c-1.01,2.45-2.07,4.99-3.18,7.59l-44.89-46.36c-.87,3.03-1.71,6.09-2.51,9.22l43.86,45.3c-1.34,3.02-2.74,6.1-4.26,9.37l-42.2-43.58c-.68,3.13-1.3,6.32-1.89,9.55l40.43,41.76c-1.5,3.11-3.04,6.24-4.6,9.34l-37.79-39.03c-.47,3.32-.91,6.68-1.28,10.09l35.27,36.43c-1.58,3.03-3.21,6.1-4.87,9.14l-31.54-32.58c-.24,3.51-.4,7.07-.53,10.66l28.11,29.03c-1.68,2.98-3.41,6.01-5.18,9.02l-23.1-23.86c.04,3.78,.14,7.6,.32,11.47l18.68,19.3c-1.74,2.88-3.57,5.84-5.46,8.83l-12.15-12.56c.34,3.77,1.27,11.83,1.31,12.09l.06,.46,6.61,6.83c-1.25,2.11-2.46,4.15-3.64,6.15l-2.14,3.61c-9.92,16.76-19.34,33.33-25.48,51.75-2.85,8.53-5.23,16.43-7.27,24.14-2.09,7.86-3.9,15.77-5.38,23.5-1.71,8.91-3.01,17.75-3.87,26.27-.96,9.59-1.39,18.98-1.26,27.89,.15,9.88,.97,19.42,2.46,28.36,1.63,9.78,4.08,19.09,7.29,27.68,3.48,9.29,7.93,17.98,13.24,25.82,5.7,8.41,12.53,16.06,20.3,22.74,8.27,7.11,17.82,13.32,28.41,18.45,11.18,5.42,23.81,9.79,37.54,12.98,5.74,1.33,11.79,2.48,18.51,3.51,9.55,1.43,19.33,2.16,29.08,2.16h0c24.8,0,49.43-4.57,73.2-13.59,16.81-6.37,35.29-13.9,53.5-21.79h0l.94-.41,.06-.03,1.72-.75h0c8.06-3.51,16.35-7.23,24.69-11.06h0l.83-.38,1.98-.91h0c7.6-3.51,14.12-6.58,20.38-9.6,0,0,.19-.09,.54-.26v2.33c1.74-.02,4.41-.09,7.9-.3l-.02-5.94Z" style="fill: url(#f);"/>
      <path d="M575.45,641.81l-.08-21.71c-1,.74-2.01,1.48-3.04,2.24-1.61,1.19-3.22,2.34-4.83,3.47l.09,23.91c-2.3,2.22-4.62,4.4-7.05,6.59l-.1-25.7c-2.63,1.73-5.25,3.38-7.87,4.98l.1,27.6c-2.51,2.11-4.84,4.01-7.06,5.75l-.11-29.19c-2.62,1.49-5.23,2.92-7.83,4.28l.15,30.67c-2.44,1.75-4.84,3.39-7.14,4.9l-.12-31.95c-2.66,1.31-5.31,2.55-7.93,3.74l.09,33.14c-2.34,1.37-4.69,2.67-7,3.88l-.13-33.94c-2.66,1.12-5.29,2.18-7.88,3.19l.13,34.63c-2.33,1.06-4.69,2.06-7.05,2.98l-.13-34.99c-2.68,.96-5.3,1.85-7.88,2.68l.13,35.13c-2.41,.78-4.77,1.46-7.06,2.05l-.13-34.98c-2.7,.8-5.33,1.54-7.88,2.22l.13,34.48c-2.46,.45-4.82,.81-7.06,1.07l-.13-33.76c-1.91,.46-3.78,.88-5.58,1.27-.78,.17-1.55,.33-2.31,.49l.12,32.6c-1.02,.03-2.05,.05-3.07,.05-1.32,0-2.66-.03-4.01-.08l-.12-31.18c-2.74,.5-5.37,.94-7.89,1.32l.11,29.19c-2.39-.31-4.74-.71-7.04-1.21l-.1-27.01c-2.83,.35-5.47,.63-7.89,.86l.09,24.02c-2.47-.8-4.84-1.69-7.05-2.67l-.08-20.82c-3.39,.2-6.06,.27-7.89,.29l.06,16.31c-.37-.24-.56-.38-.56-.38l-.07-.05c-8.48-5.44-15.81-10.9-22.41-16.69-6.67-5.85-12.57-12.09-18.03-19.05-8.73-11.14-14.97-22.58-21.59-34.7-10.65-19.51-22.72-41.63-48.28-67.73-29.29-29.9-71.75-60.35-129.82-93.09-2.09-1.18-4.16-2.36-6.22-3.53-2.73-1.56-7.14-4.08-7.14-4.08l-.56,.98c-7.27,12.76-13.71,25.83-19.11,38.85l-.46,1.1s1.76,.63,3.22,1.09c3.26,1.04,6.22,2.18,9.07,3.48,4.82,2.22,12.49,5.9,22.21,11.1l-15.47,13.62c.96,1.69,2.32,4.03,4.09,6.91l18.75-16.51c3.06,1.71,6.01,3.39,8.95,5.11l-22.39,19.71c1.39,2.1,2.92,4.33,4.57,6.69l25.07-22.07c2.7,1.64,5.48,3.37,8.32,5.16l-27.87,24.53c1.62,2.17,3.33,4.41,5.14,6.71l30.1-26.5c2.62,1.72,5.41,3.6,8.49,5.72l-32.35,28.48c1.65,1.97,3.37,3.97,5.14,5.99l33.89-29.83c2.56,1.82,5.26,3.78,8.21,5.97l-35.45,31.2c1.75,1.87,3.58,3.78,5.47,5.7l36.42-32.06c2.75,2.11,5.32,4.12,7.79,6.09l-37.27,32.81c1.92,1.83,3.9,3.68,5.94,5.53l37.66-33.15c2.66,2.21,5.18,4.34,7.63,6.47l-37.78,33.26c2.01,1.7,4.06,3.4,6.17,5.09l37.57-33.07c2.33,2.1,4.75,4.33,7.22,6.67l-36.92,32.5c2.17,1.62,4.39,3.23,6.66,4.82l36.07-31.75c1.63,1.6,3.33,3.3,5.14,5.16l-35,30.81c2.26,1.5,4.57,2.97,6.92,4.42l33.56-29.54c2.17,2.31,4.42,4.75,6.69,7.3l-31.27,27.53c2.43,1.36,4.89,2.7,7.4,4.01l29.08-25.6c2.15,2.51,4.22,5,6.19,7.43l-25.88,22.78c2.69,1.25,5.41,2.46,8.19,3.63l22.73-20.01c2.01,2.61,4.04,5.33,6.06,8.14l-18.2,16.02c2.83,1.03,5.71,2,8.62,2.93l14.12-12.43,15.28,23.81-.07,.02,1.05,1.51s.06,.09,.09,.13l.5,.78h.03c5.71,8.2,11.09,15.13,16.4,21.16,19.34,21.94,41.27,34.98,69.01,41.06,9.14,2,18.25,3.02,27.06,3.02,23.33,0,45.55-7.06,66.06-20.97,16.35-11.1,31.65-26.56,45.46-45.95,23.47-32.95,33.86-66.69,33.97-67.02-.03,.07-16.48,25.14-19.54,28.62-3.83,4.36-7.9,8.76-12.39,13.37Z" style="fill: url(#g);"/>
    </g>
  </g>
</svg>