<?xml version="1.0" encoding="UTF-8"?>
<svg id="b" data-name="圖層 2" xmlns="http://www.w3.org/2000/svg" width="166.1" height="90.59" xmlns:xlink="http://www.w3.org/1999/xlink" viewBox="0 0 166.1 90.59">
  <defs>
    <style>
      .h {
        opacity: .68;
      }

      .i {
        fill: #4d4d4d;
      }

      .j {
        fill: #040000;
      }

      .k {
        fill: url(#f);
      }

      .l {
        fill: url(#g);
      }

      .m {
        fill: url(#e);
      }

      .n {
        fill: url(#d);
      }
    </style>
    <linearGradient id="d" x1="6.95" y1="17.51" x2="157.77" y2="29.74" gradientTransform="matrix(1, 0, 0, 1, 0, 0)" gradientUnits="userSpaceOnUse">
      <stop offset="0" stop-color="#2b604c"/>
      <stop offset=".84" stop-color="#1b2e47"/>
      <stop offset="1" stop-color="#182447"/>
    </linearGradient>
    <linearGradient id="e" x1="7.02" y1="16.58" x2="157.85" y2="28.81" xlink:href="#d"/>
    <linearGradient id="f" x1="7.4" y1="11.9" x2="158.23" y2="24.13" xlink:href="#d"/>
    <linearGradient id="g" x1="7.12" y1="15.3" x2="157.95" y2="27.53" xlink:href="#d"/>
  </defs>
  <g id="c" data-name="圖層 2">
    <g>
      <g>
        <g>
          <path class="n" d="M71.65,25.84h-5.09l-.25,.19c-2.74,2.13-4.67,3.65-5.78,4.55h-.01l-.61,.52-.04,.03-.76,.65h0c-1.66,1.43-3.01,2.51-4.02,3.21-1.22,.85-1.93,1.05-2.3,1.08,.14-.21,.39-.55,.86-1.09l1.71-1.91c1.36-1.52,3.21-3.43,5.52-5.66l1.64-1.59h-5.22l-.26,.23c-.94,.84-1.87,1.68-2.84,2.57l-3.29,3.08c-1.15,1.1-2.43,2.12-3.82,3.04-1.68,1.11-2.46,1.28-2.79,1.28-.02,0-.03,0-.05,0,.08-.13,.24-.34,.53-.65l5.7-5.9c.88-.86,1.58-1.57,2.08-2.1l1.46-1.56h-4.87l-.23,.16c-.61,.4-1.32,.98-2.13,1.7-.68,.61-1.83,1.58-3.44,2.9l-.04-.04-.63,.58-.78,.64,.02,.02c-1.03,.85-2.32,1.74-3.85,2.65-1.83,1.09-3.28,1.64-4.32,1.64-.86,0-.86-.2-.86-.37,0-.04,.02-.28,.41-.85,.23-.34,.92-1.12,2.88-2.92,1.74-1.6,2.83-2.9,3.34-3.97,.52-1.09,.78-2.06,.78-2.95,0-.69-.12-1.36-.35-2,3.96-.72,7-2,9.04-3.82,2.31-2.06,3.48-4.46,3.48-7.12,0-2.36-.88-4.52-2.62-6.42,1.87-1.26,3.43-2.12,4.62-2.55l.77-.28-.46-2.03-.97,.32c-1.1,.37-2.94,1.37-5.63,3.08-3.63-2.8-8.78-4.21-15.29-4.21-4.92,0-9.44,.88-13.42,2.61-3.99,1.74-7.32,4.07-9.89,6.94-2.64,2.94-3.98,5.83-3.98,8.59,0,2.03,1.05,3.81,3.11,5.28,1.96,1.4,4.27,2.11,6.84,2.11,2.38,0,5.05-.61,7.92-1.8,2.89-1.21,5.25-2.83,7.02-4.82,1.83-2.06,2.76-4.19,2.76-6.31,0-1.38-.48-2.57-1.41-3.54l-.12-.13-1.62,1.39,.18,.14c.58,.47,.87,1.12,.87,2.01,0,1.52-.78,3.09-2.31,4.66-1.62,1.66-3.87,3.09-6.69,4.23-2.89,1.17-5.31,1.75-7.39,1.75h0c-1.99,0-3.65-.52-5.06-1.59-1.32-1-1.96-2.16-1.96-3.56,0-3.33,2.46-6.82,7.3-10.39,4.93-3.63,10.92-5.47,17.8-5.47,3.29,0,6.24,.4,8.79,1.19,1.97,.61,3.58,1.36,4.8,2.24-5.46,4.06-10.02,8.34-13.56,12.71l-3.7,4.58c-3.71,4.57-7.12,7.98-10.13,10.14-2.92,2.09-6.05,3.15-9.33,3.15-2.51,0-4.46-.45-5.79-1.34-.19-.13-.37-.25-.53-.38,.51-.06,.99-.3,1.37-.68,.46-.46,.7-1.04,.7-1.68,0-.68-.29-1.29-.83-1.77-.49-.43-1.16-.67-1.85-.67-.83,0-1.6,.36-2.09,.98-.47,.59-.7,1.24-.7,1.94,0,1.54,.94,2.92,2.79,4.08,1.71,1.08,3.99,1.63,6.76,1.63,3.06,0,6.26-.76,9.52-2.27,3.22-1.49,5.94-3.21,8.07-5.1,2.12-1.88,3.74-3.59,4.81-5.07l2.46-3.4c.21,.23,.51,.42,.88,.58,.58,.25,1.26,.37,2.03,.37,.14,0,.3,0,.46-.02,.16,.36,.24,.69,.24,1.01,0,.45-.43,1.09-1.2,1.8l-1.67,1.51c-1.55,1.44-2.55,2.43-3.05,3.03-.53,.62-.99,1.33-1.38,2.12-.41,.84-.63,1.64-.63,2.36,0,.79,.32,1.5,.94,2.11,.62,.6,1.49,.91,2.58,.91,2.33,0,5.11-1.24,8.45-3.79-.12,.41-.18,.81-.18,1.21,0,.75,.24,1.37,.71,1.85,.46,.47,1.05,.71,1.69,.71,.9,0,2.51-.34,6.08-3.17-.05,.24-.07,.48-.07,.71,0,.75,.23,1.37,.69,1.83,.46,.47,1.03,.72,1.66,.72,.66,0,1.48-.26,2.59-.83,.78-.4,2.11-1.39,4.06-3.01-.11,.38-.16,.76-.16,1.13,0,.71,.22,1.31,.66,1.76,.44,.45,1.03,.69,1.71,.69,1.02,0,2.99-.55,8.4-5.28l.75-.65-1.49-1.49-.65,.57c-2.46,2.14-4.19,3.49-5.14,4.02-.79,.44-1.38,.66-1.81,.69,.07-.11,.17-.23,.28-.34l9.83-9.66ZM48.14,6.91c.85,.82,1.26,1.9,1.26,3.3,0,1.91-1.14,4.15-3.38,6.66-2.11,2.36-4.53,3.8-7.19,4.26-.71-.81-1.56-1.27-2.52-1.36,2.48-3.33,4.53-5.91,6.1-7.65,1.72-1.91,3.65-3.66,5.73-5.22Z"/>
          <path class="m" d="M72.43,19.79c-.59,0-1.18,.26-1.62,.71-.47,.47-.7,1-.7,1.58,0,.49,.18,.94,.51,1.29,.35,.37,.79,.56,1.29,.56,.56,0,1.09-.2,1.57-.61,.52-.44,.79-1.01,.79-1.67,0-.49-.17-.93-.49-1.3-.34-.37-.81-.58-1.34-.58Z"/>
        </g>
        <g>
          <path class="k" d="M128.89,20.5c-.47,.47-.7,1-.7,1.58,0,.49,.18,.94,.51,1.29,.35,.37,.79,.56,1.29,.56,.56,0,1.09-.2,1.57-.61,.52-.44,.79-1.01,.79-1.67,0-.49-.17-.93-.49-1.3-.34-.37-.81-.58-1.34-.58-.59,0-1.18,.26-1.62,.71Z"/>
          <path class="l" d="M161.18,32.7c-1.04,.92-2.67,2-4.84,3.22-.34,.19-.66,.37-.98,.54l10.74-10.62h-4.85l-.85,.86c-.13-.2-.31-.37-.52-.52-.46-.33-1-.49-1.61-.49-1.35,0-3.08,.47-5.3,1.42-2.17,.94-3.98,2.09-5.39,3.43-.02,.02-.03,.03-.05,.05h0l-2.34,1.97c-1.33,1.13-2.54,1.98-3.59,2.5-.82,.41-1.36,.6-1.72,.7,.2-.22,.76-.75,2.24-2.01,1.34-1.14,2.24-2.08,2.77-2.86,.58-.86,.87-1.73,.87-2.59,0-.56-.19-2.4-2.69-2.4-1.27,0-3.05,.86-5.43,2.62,.02-.17,.03-.34,.03-.5,0-.65-.23-1.21-.67-1.61-.42-.38-.94-.59-1.52-.59-1.05,0-3.03,.51-8.25,4.78l-.02-.02-.63,.55h0l-.78,.66h.01c-2.06,1.78-3.53,2.91-4.38,3.38-.79,.44-1.38,.66-1.81,.69,.07-.11,.17-.23,.28-.34l9.83-9.66h-5.09l-.25,.19c-2.69,2.09-4.61,3.6-5.72,4.51l-.02-.02-.67,.59-.03,.03-.63,.54c-2.09,1.74-4.13,2.86-6.05,3.35-2.19,.55-4.24,.84-6.1,.84-1.4,0-3.06-.2-4.93-.59,.63-.26,1.22-.53,1.75-.81,1.35-.72,2.79-1.7,4.28-2.91,1.49-1.21,2.78-2.47,3.84-3.75,1.01-1.21,2.57-3.32,4.64-6.27,5.62-1.31,11.09-3.72,16.27-7.16,5.54-3.68,8.23-6.86,8.23-9.72,0-1.07-.39-1.95-1.16-2.64-.74-.66-1.7-1-2.84-1-2.88,0-6.67,1.7-11.59,5.19-4.7,3.34-8.97,8.08-12.68,14.07-2.9,.63-5.69,.95-8.3,.95-3.43,0-5.9-.6-7.34-1.78-1.41-1.15-2.1-2.43-2.1-3.91,0-2.16,.98-4.41,2.91-6.68l.08-.1-1.36-2.51-.18,.17c-2.54,2.37-3.83,5.21-3.83,8.44,0,2.3,.92,4.31,2.74,5.99,1.83,1.68,4.74,2.5,8.93,2.5,2.27,0,4.55-.21,6.78-.61-4.35,6.34-8.71,10.25-12.96,11.62-3.76-1.21-7.62-1.83-11.45-1.83-1.5,0-6.08,0-6.08,2.94,0,.64,.32,1.52,1.85,2.07,.94,.34,2.82,.51,5.75,.51s5.95-.39,8.63-1.15c2.78,.88,5.67,1.33,8.61,1.33,5.5,0,10.09-1.31,13.68-3.89-.12,.41-.18,.81-.18,1.2,0,.71,.22,1.31,.66,1.76,.44,.45,1.03,.69,1.71,.69,1.01,0,2.98-.54,8.35-5.23l.04-.03c3.16-2.65,5.46-4.22,6.86-4.7-.21,.25-.52,.59-.96,1.03l-8.74,8.69h5.18l.27-.26c2.98-2.85,5.63-5.21,7.88-6.99,2.52-2,3.92-2.48,4.67-2.51-.21,.27-.64,.73-1.5,1.46l-1.19,1.01c-1.06,.9-1.73,1.51-2.03,1.87-.32,.37-.61,.82-.86,1.35-.28,.57-.41,1.15-.41,1.72,0,.69,.22,1.28,.66,1.75,.45,.49,1.03,.75,1.67,.75,1.47,0,3.4-.91,5.87-2.76,.04,.77,.3,1.45,.79,2.04,.57,.68,1.28,1.02,2.16,1.02,.33,0,.68-.05,1.06-.14l-1.16,1.2c-2.85,.59-5.77,1.87-8.66,3.79-3.26,2.16-4.77,3.9-4.77,5.48,0,.58,.26,1.09,.74,1.47,.42,.34,.97,.51,1.64,.51,1.69,0,3.55-.72,5.52-2.14,1.84-1.33,4.73-3.98,8.81-8.09,1.34-.32,3.12-1.06,5.43-2.26,2.43-1.26,4.96-3.05,7.54-5.32l.74-.65-1.48-1.48-2.49,2.12Zm-16.14,9.77l-.02,.03c-2.61,2.76-4.43,4.45-5.38,5.04-.88,.54-1.69,.81-2.41,.81-.14,0-.24,0-.32-.02,.15-.33,.72-1.2,2.97-2.98,1.4-1.1,3.13-2.06,5.17-2.88Zm2.92-6.36s-.01-.07-.01-.18c0,0,0-.34,.71-1.23,.56-.72,1.61-1.75,3.11-3.05,1.5-1.31,2.81-2.3,3.9-2.96,.98-.59,1.79-.89,2.41-.89,.3,0,.4,.04,.42,.05v.04c0,.19-.2,1.32-4.2,4.66-3.53,2.95-5.3,3.57-6.16,3.57-.11,0-.16,0-.18-.01ZM135.25,3.12c.57,0,1.03,.15,1.42,.46,.33,.26,.48,.54,.48,.89,0,1.31-1.14,3.71-6.57,7.7-3.98,2.93-8.76,5.22-14.21,6.82,1.4-2.24,3.16-4.56,5.22-6.91,2.65-3.03,5.24-5.31,7.67-6.79,2.37-1.44,4.38-2.17,5.98-2.17Zm-50.64,31.69c1.72,0,3.78,.3,6.15,.88-1.27,.16-2.71,.25-4.29,.25-3.63,0-4.66-.25-4.93-.36-.21-.08-.34-.15-.43-.2,.21-.19,1.06-.57,3.5-.57Z"/>
        </g>
      </g>
      <g>
        <g>
          <path class="j" d="M55.77,56.36c.26-.3,.53-.35,.8-.15,.46,.45,.72,.82,.78,1.11-.11,.15-.32,.2-.63,.15h-.75c-.25,0-.38,.12-.38,.36v3.18c0,.26,.09,.27,.26,.01,.24-.5,.55-.5,.92,.02,.14,.14,.26,.28,.35,.42,.26,.26,.34,.48,.24,.66-.05,.03-.23,.05-.53,.05h-.86c-.25,0-.38,.12-.38,.36v3.13c0,.24,.15,.33,.45,.27l.9-.29c.3-.11,.47-.14,.51-.09,0,.05-.14,.2-.42,.45-.94,.7-2.01,1.35-3.19,1.93-.21,.15-.32,.28-.33,.38-.07,.21-.2,.27-.39,.17-.18-.27-.36-.8-.54-1.6-.06-.33,.09-.5,.44-.5,.18-.03,.36-.05,.54-.05,.24-.02,.36-.15,.36-.39v-3.39c0-.24-.15-.36-.45-.35h-.15c-.4,.08-.63,0-.68-.21-.04-.23,.1-.33,.41-.3,.17,0,.34,.01,.51,.05,.24,0,.36-.12,.36-.36v-3.53c0-.24-.15-.36-.45-.35l-.15,.02c-.39,.07-.61,0-.66-.21-.06-.22,.06-.33,.36-.32,.44,.08,1.06,.11,1.87,.08,.26,0,.47-.12,.63-.35l.26-.38Zm9.43,4.64c.17-.2,.29-.32,.35-.36,.63,.26,1.17,.74,1.61,1.45-.09,.15-.3,.2-.63,.15h-3.41c-.24,0-.45,.15-.63,.45-.2,.33-.44,.64-.71,.93-.25,.25-.27,.38-.05,.38h2.67c.25,0,.45-.09,.59-.27,.19-.37,.48-.4,.87-.09,.39,.21,.69,.42,.89,.63,.15,.21,.13,.38-.08,.51-.08,.05-.12,.2-.12,.44v4.22c-.18,.84-.68,1.29-1.49,1.33-.33,0-.5-.07-.5-.24,.04-.24-.04-.5-.24-.78-.19-.24-.3-.31-.33-.21-.23,.44-.6,.59-1.11,.44-.34-.11-.48-.38-.42-.81v-4.37c0-.25-.14-.38-.41-.38-.29,0-.44,.12-.44,.36v4.19c.04,.79-.32,1.11-1.07,.95-.41-.1-.58-.4-.5-.89v-4.23c0-.25-.11-.38-.32-.38-.42-.1-.58,.04-.48,.42v4.84c.04,.35-.01,.63-.17,.83-.3,.24-.68,.33-1.13,.26-.34-.08-.46-.34-.36-.77v-6.12c0-.32,.16-.44,.47-.35,.32,.07,.67,.2,1.04,.39,.12,.06,.3,.09,.54,.09h.78c.24,0,.38-.15,.42-.45l.02-.93c0-.25-.12-.38-.36-.38h-1.7l-.5,.08c-.32,.05-.51-.03-.57-.23-.07-.24,.08-.35,.44-.32,.18,0,.38,.04,.59,.08h5.33c.27,.08,.48,0,.63-.24l.48-.6Zm-4.07-4.54c0-.32,.14-.48,.44-.47,.75,.02,1.31,.14,1.66,.36,.1,.18-.02,.34-.36,.48-.04,.04-.06,.18-.06,.42v2.08c0,.25,.12,.38,.36,.38h.92c.25,0,.38-.12,.38-.36v-2.5c0-.32,.16-.47,.47-.45l1.02,.15c.19,0,.37,.08,.53,.21,.12,.18,.02,.35-.3,.5-.04,.06-.06,.21-.06,.45v1.91c.1,.48-.06,.78-.47,.9-.44,.11-.82,.03-1.15-.26-.07-.1-.2-.15-.38-.15h-4.13c-.24,0-.37,.05-.39,.15-.21,.44-.62,.58-1.24,.42-.18-.08-.3-.17-.36-.26-.04-.1-.06-.3-.06-.6v-2.98c0-.32,.16-.47,.47-.45l1.02,.15c.19,0,.37,.08,.53,.21,.12,.18,.02,.35-.3,.5-.05,.06-.08,.21-.08,.45v1.63c0,.25,.12,.38,.36,.38h.8c.25,0,.38-.12,.38-.36v-2.89Zm3.75,8.33c0-.26-.14-.39-.42-.39-.3,0-.45,.12-.45,.36v3.77c0,.24,.09,.36,.27,.35,.42,.1,.62-.1,.6-.59v-3.5Z"/>
          <path class="j" d="M76.11,56.47c0-.31,.15-.46,.45-.45,.33,.03,.68,.08,1.04,.14,.2,.08,.32,.14,.35,.17,.11,.15,.05,.28-.2,.39-.1,.05-.15,.19-.15,.42v.35c0,.25,.09,.38,.27,.38,.27,.08,.51-.1,.71-.54,.25-.54,.51-.66,.77-.35,.22,.18,.4,.38,.54,.59,.28,.26,.35,.49,.2,.68-.05,.02-.23,.03-.53,.03h-1.58c-.25,0-.38,.12-.38,.36v.86c0,.25,.16,.38,.48,.38,.33,.08,.58,0,.75-.24l.42-.6c.09-.18,.2-.26,.33-.24,.5,.35,.86,.78,1.09,1.3-.09,.18-.3,.24-.63,.18h-6.13c-.32,.03-.64,.08-.96,.14-.04-.03-.08-.13-.11-.3-.04-.22,.07-.33,.33-.32,.35,.02,.53-.07,.53-.27v-2c0-.3,.15-.45,.45-.45,.35,.03,.7,.08,1.05,.15,.17,.04,.28,.09,.33,.14,.13,.17,.07,.3-.2,.39-.1,.04-.15,.19-.15,.44v1.33c0,.25,.15,.38,.45,.38s.47-.12,.47-.36v-3.03Zm6.55-.24c.04-.05,.21-.05,.51,0,.69,.16,1.15,.35,1.37,.56,.05,.16-.04,.25-.26,.26-.15,.04-.14,.22,.03,.53,.7,1.1,1.61,1.87,2.73,2.29,.35,.14,.35,.34,0,.6-.27,.25-.46,.5-.56,.75-.1,.3-.17,.47-.2,.5-.19-.06-.46-.28-.81-.66-.72-.98-1.22-1.99-1.49-3.01-.08-.28-.19-.32-.32-.11-.85,1.52-1.96,2.69-3.33,3.53-.24,.14-.36,.33-.36,.57v7.77c.14,.62-.16,.92-.89,.9-.4-.04-.58-.26-.54-.65,0-.19-.12-.29-.36-.29h-3.19c-.25,0-.38,.08-.38,.24-.02,.53-.28,.76-.78,.69-.51-.01-.72-.3-.63-.86v-8.84c0-.33,.18-.48,.54-.45,.2,0,.4,.04,.6,.09,.25,0,.44,.06,.57,.15,.1,.09,.09,.23-.05,.42-.17,.19-.26,.41-.26,.65v1.43c0,.34,.08,.35,.24,.03,.23-.57,.4-1.24,.51-2,.05-.3,.1-.46,.14-.48,.56,.05,.94,.19,1.15,.41-.02,.06-.06,.11-.12,.15-.07,.02-.16,.1-.26,.24-.08,.17,.02,.38,.3,.62,.25,.33,.41,.39,.47,.17l.2-1.07c.06-.3,.24-.43,.54-.39,.36,.05,.6,.18,.72,.39-.06,.08-.11,.13-.15,.14-.05,0-.14,.11-.27,.33-.1,.22-.05,.42,.15,.59,.21,.26,.32,.27,.32,.01v-1.36c0-.33,.18-.48,.54-.45,.29,.03,.58,.08,.87,.14,.27,.08,.52-.01,.75-.29,1-1.3,1.65-2.71,1.94-4.23Zm-6.57,6.49c-.08-.28-.21-.27-.38,.03-.21,.32-.46,.66-.75,1.01-.23,.26-.35,.45-.35,.56,0,.15,.12,.23,.36,.23h3.19c.25,0,.38-.1,.38-.29,0-.2-.05-.29-.15-.27-.3,.06-.48-.1-.53-.47,.02-.18,.02-.37-.01-.56-.08-.26-.21-.24-.38,.06-.15,.27-.44,.62-.87,1.05-.37,.26-.44,.22-.21-.14,.15-.22,.2-.34,.14-.36-.15,0-.26-.1-.33-.29,0-.19-.05-.38-.11-.57Zm2.46,2.62c0-.26-.12-.39-.35-.39h-3.21c-.25,0-.38,.12-.38,.36v2.65c0,.33,.08,.36,.24,.08,.23-.61,.4-1.29,.51-2.02,.04-.3,.08-.47,.12-.5,.21,0,.44,.06,.68,.15,.42,.08,.55,.23,.38,.44-.08-.03-.18,.07-.3,.29-.06,.13,.05,.31,.33,.53,.24,.33,.4,.38,.48,.14,.08-.34,.14-.68,.18-1.02,.03-.3,.07-.47,.11-.51,.21,0,.44,.06,.68,.14,.32,.16,.48,.27,.48,.32-.01,.06-.06,.11-.15,.14-.09,.06-.18,.19-.27,.38-.09,.19-.03,.38,.2,.57,.18,.23,.27,.23,.27-.02v-1.7Zm-2.44,2.09c-.09-.27-.22-.27-.38,0-.23,.34-.49,.68-.77,1.02-.23,.27-.35,.49-.35,.65,0,.17,.12,.26,.36,.26h3.19c.25,0,.38-.12,.38-.35s-.05-.35-.15-.33c-.17,.04-.32-.02-.44-.18-.05-.11-.08-.34-.08-.69,0-.05-.02-.12-.05-.2-.07-.27-.2-.23-.38,.12-.25,.38-.56,.74-.93,1.09-.27,.22-.32,.17-.14-.17,.17-.28,.22-.42,.15-.42-.29-.07-.42-.26-.39-.57,0-.06-.02-.14-.05-.23Zm8.88-4.61c.17-.26,.44-.32,.81-.18,.47,.21,.82,.49,1.05,.83,0,.09-.06,.2-.2,.32-.27,.07-.38,.27-.32,.59v2.58c-.02,.66-.4,1.09-1.15,1.28-.3,.02-.46-.14-.47-.48-.05-.28-.26-.52-.63-.71-.21-.08-.32-.16-.32-.23,.03-.07,.07-.12,.12-.15,.24,.03,.5,.04,.77,.02,.18-.07,.25-.26,.2-.57v-2.03c.08-.43-.08-.6-.47-.51h-.45c-.25,0-.38,.12-.38,.36v5.74c.06,.75-.3,1.05-1.09,.89-.36-.14-.5-.44-.41-.89v-5.73c0-.25-.12-.38-.36-.38-.23,0-.46,.04-.69,.08-.31,.05-.49-.02-.54-.23-.05-.21,.09-.32,.42-.32,.19,0,.38,.04,.57,.08h2.86c.25,0,.47-.12,.65-.35Zm-1.1-2.09c.21-.27,.34-.41,.39-.42,.42,.23,.74,.56,.96,.99,.11,.16,.11,.28-.02,.36-.05,.02-.23,.03-.53,.03h-2.22l-.57,.09c-.3,.02-.47-.05-.51-.21l-.06-.3c0-.05,.17-.07,.47-.05,.42,.09,.98,.11,1.69,.05l.39-.54Z"/>
          <path class="j" d="M97.16,58.47c.19-.29,.45-.26,.77,.11,.18,.15,.36,.32,.54,.51,.21,.36,.28,.56,.2,.6l-.51,.02h-4.54l-.48,.08c-.32,.06-.53-.05-.62-.35l-.05-.18s.18-.05,.48-.02c.19,.01,.4,.04,.62,.08h2.47c.28,.08,.49,0,.62-.24,.15-.2,.32-.4,.5-.6Zm-4.29,6.93c0-.33,.16-.46,.47-.38,.26,.06,.52,.16,.78,.29,.24,.2,.72,.27,1.45,.2,.24,0,.46-.1,.66-.29,.2-.18,.45-.22,.75-.12,.25,.11,.5,.24,.75,.39,.53,.23,.62,.48,.27,.75-.22,.13-.3,.33-.23,.59v2.43c.14,.56-.12,.88-.78,.96-.53,.17-.8-.06-.81-.69,0-.24-.12-.36-.36-.36h-.98c-.25,0-.38,.12-.38,.36,.11,.63-.18,.99-.87,1.07-.19,.03-.38,0-.56-.09-.16-.15-.22-.38-.17-.69v-4.42Zm3.6-9.01c.18-.26,.42-.22,.72,.12,.3,.25,.59,.57,.86,.95-.02,.2-.22,.27-.59,.2h-3.36l-.48,.09c-.33,.03-.53-.05-.59-.23-.06-.25,.09-.36,.44-.33,.39,.06,1.03,.08,1.91,.06,.25,0,.49-.15,.72-.44l.36-.42Zm3.84,.29c0-.33,.18-.5,.5-.5,.6,.06,1.13,.17,1.58,.32,.15,.08,.18,.19,.09,.32-.09,.1-.1,.25-.03,.45,.55,1.76,1.81,3.17,3.77,4.25,.37,.12,.54,.26,.51,.42-.47,.04-.9,.27-1.3,.68-.2,.3-.32,.46-.36,.47-.05,0-.13-.04-.24-.11-1.19-1.02-1.98-2.31-2.4-3.84-.18-.6-.3-1.23-.35-1.87-.03-.03-.11,.12-.24,.44-.75,2.13-2,3.96-3.75,5.48-.19,.15-.27,.28-.24,.38,.02,.07,0,.13-.03,.18-.06,.04-.24,.06-.54,.06h-3.12l-.48,.08c-.32,.05-.52-.02-.59-.21-.06-.25,.09-.36,.45-.33,.39,.09,1.06,.11,2.02,.05,.15-.15,.3-.32,.45-.51l.24-.3c.21-.3,.51-.24,.89,.2,.3,.3,.56,.31,.77,.03,1.38-2,2.17-4.04,2.4-6.12Zm-4.29,4.13c.28-.32,.45-.49,.5-.51,.35,.16,.7,.44,1.05,.84,.21,.36,.28,.56,.2,.59-.04,.02-.21,.03-.51,.03h-3.09l-.48,.08c-.32,.05-.52-.02-.59-.21-.06-.25,.09-.36,.45-.33,.38,.06,.93,.08,1.64,.06,.29,.12,.57-.06,.83-.54Zm.17,5.53c0-.28-.13-.42-.38-.42h-.96c-.25,0-.38,.12-.38,.36v2.11c0,.25,.12,.38,.36,.38h.98c.25,0,.38-.12,.38-.36v-2.06Zm8.08-.74c.17-.29,.45-.34,.83-.14,.33,.19,.68,.42,1.04,.68,.26,.25,.23,.41-.11,.47-.1,0-.3,.11-.6,.36-1.48,1.44-3.03,2.46-4.67,3.06-.95,.34-1.88,.54-2.79,.6-.06-.04-.09-.08-.08-.12,.14-.13,.37-.24,.68-.33,2.52-1.05,4.42-2.57,5.7-4.58Zm-3.15-4.76s.07-.06,.12-.06c.57,.14,1.12,.39,1.66,.74,.13,.2,.06,.32-.21,.36-.1,0-.27,.15-.5,.45-1.15,1.49-2.37,2.39-3.68,2.71-.04-.04,.09-.21,.39-.51,1.11-1.07,1.85-2.31,2.21-3.69Zm-2.24,6.57c1.74-1.12,3.04-2.59,3.9-4.42,.32,.08,.71,.28,1.16,.6,.18,.09,.34,.24,.48,.45,.03,.26-.08,.35-.33,.26-.1,.01-.3,.18-.59,.5-1.47,1.54-2.95,2.49-4.45,2.86-.44,.08-.5,0-.18-.26Z"/>
          <path class="j" d="M114.67,57.73c.9-.43,1.65-.88,2.23-1.36,.05-.02,.23,.04,.53,.18,.55,.3,.94,.56,1.18,.78,.15,.18,.15,.32-.01,.42-.05,.02-.26,.03-.62,.03-1.05,.26-2.12,.45-3.21,.56-.24,.04-.36,.18-.36,.42v1.6c0,.25,.12,.38,.36,.38h1.08c.23,.12,.56-.08,.99-.59,.92,.33,1.51,.67,1.76,1.01,.03,.08-.03,.18-.17,.3-.27,.11-.38,.32-.32,.63v3c.14,.56-.12,.88-.78,.96-.59,.12-.88-.08-.87-.59,0-.23-.12-.35-.36-.35h-1.58c-.24,0-.39,.15-.44,.45-.22,1.71-.82,3.17-1.81,4.4-.29,.29-.48,.45-.57,.48-.08,0-.07-.16,.03-.48,.63-2.01,.96-4.62,.99-7.84v-4.34c0-.34,.19-.45,.56-.32,.19,.07,.38,.16,.57,.26,.26,.12,.53,.12,.81-.02Zm1.79,3.83c0-.27-.13-.41-.39-.41-.54,0-1.09,0-1.63,.01-.05,.03-.08,.17-.08,.41,0,.99-.06,1.93-.15,2.8-.01,.24,.11,.36,.35,.36h1.52c.25,0,.38-.12,.38-.36v-2.82Zm4.72-3.96c1.02-.37,1.95-.82,2.82-1.34,.66,.32,1.2,.71,1.63,1.16,.08,.32-.06,.45-.41,.38-.1-.02-.2-.02-.3-.01-1.33,.23-2.59,.4-3.8,.51-.24,.03-.36,.2-.35,.5v2.17c0,.3,.12,.45,.36,.45h1.55c.32,.12,.6-.06,.84-.54,.1-.1,.18-.2,.26-.3,.28-.27,.57-.32,.87-.15,.63,.46,1.02,.89,1.18,1.28-.09,.12-.3,.16-.62,.12h-.74c-.25,0-.38,.12-.38,.36v7.99c-.19,.51-.64,.66-1.36,.45-.19-.06-.3-.2-.33-.42v-8c0-.25-.12-.38-.36-.38h-.92c-.24,0-.37,.15-.39,.45-.02,1.58-.26,3.13-.71,4.67-.55,1.63-1.63,2.77-3.22,3.44-.3,.09-.48,.12-.53,.09-.03-.05-.04-.1-.01-.15,.81-.61,1.43-1.38,1.85-2.31,.36-.78,.6-1.59,.72-2.41,.14-1.47,.23-3.42,.26-5.85v-2.17c0-.3,0-.47,.03-.51,.04-.04,.22,0,.54,.14l.6,.3c.29,.17,.59,.2,.9,.09Z"/>
        </g>
        <g>
          <path class="i" d="M69.07,83.01c0-.17,.07-.25,.23-.25l.57,.08c.23,.02,.34,.1,.34,.23-.03,.09-.08,.14-.17,.15-.11,.04-.15,.14-.11,.29v2.07c0,.13,.01,.19,.04,.2,.03,0,.1-.09,.21-.25,.1-.14,.17-.23,.23-.27,.04,0,.15,.08,.33,.26,.19,.21,.25,.36,.18,.45-.03,.02-.12,.02-.28,.02h-.53c-.13,0-.2,.06-.2,.19v.21c0,.13,.08,.23,.24,.29,.6,.31,.9,.72,.92,1.24-.09,.44-.32,.57-.68,.41-.07-.06-.12-.13-.16-.22-.03-.21-.06-.42-.07-.64-.04-.16-.1-.32-.18-.45-.04-.04-.06,.02-.06,.17v3.03c-.06,.19-.19,.29-.4,.3-.37,.01-.53-.16-.47-.51v-1.78c0-.18-.03-.19-.09-.02-.17,.53-.48,.94-.92,1.26-.04,0-.07-.02-.09-.04,.53-1.1,.87-2.19,1.03-3.26,.01-.13-.05-.19-.18-.19-.19-.01-.39,0-.6,.04-.16,.01-.25-.04-.27-.14-.02-.11,.06-.15,.21-.14,.23,.04,.47,.06,.7,.04,.13,0,.2-.06,.2-.19v-2.59Zm-1.09,.41s.12,.01,.29,.14c.44,.39,.66,.82,.67,1.28,0,.12-.04,.22-.1,.32-.08,.16-.21,.24-.38,.21-.32-.06-.42-.28-.32-.64,.12-.46,.06-.9-.16-1.32Zm4.81-.45c-.01-.17,.09-.24,.3-.22,.19,0,.37,.03,.56,.07,.16,.07,.25,.12,.26,.14,.02,.07-.02,.13-.13,.18-.07,.04-.11,.15-.11,.31,0,.18,.06,.27,.19,.27h.18c.17,.05,.31-.04,.41-.29,.15-.2,.24-.29,.27-.29,.11,.05,.25,.2,.45,.45,.09,.16,.13,.26,.12,.29-.03,.04-.12,.06-.28,.06h-1.15c-.13,0-.2,.06-.2,.19v.36c0,.13,.07,.2,.21,.2,.19,.06,.34-.03,.45-.29,.15-.2,.24-.29,.28-.29,.24,.16,.44,.38,.58,.68-.04,.11-.15,.14-.33,.1h-.99c-.13,0-.2,.06-.2,.19v.39c0,.13,.06,.2,.19,.2,.21,0,.43,0,.66-.02,.02-.01,.05-.05,.1-.11,.06-.11,.14-.21,.22-.32,.12-.21,.27-.19,.45,.06,.19,.2,.3,.36,.34,.49-.04,.1-.15,.13-.33,.1h-3.63l-.3,.04c-.16,.01-.25-.03-.26-.11l-.04-.16s.1-.03,.25-.02c.11,0,.22,.02,.33,.04h.93c.13,0,.2-.06,.2-.19v-.39c0-.13-.06-.2-.19-.2-.31-.02-.63,.01-.98,.08-.03-.02-.05-.06-.07-.14l-.02-.16s.09-.03,.25-.02c.22,.04,.49,.06,.82,.04,.13,0,.2-.06,.2-.19v-.36c0-.13-.06-.2-.19-.2-.48-.01-.83,0-1.03,.04-.16,.01-.25-.03-.27-.12-.03-.1-.09-.06-.18,.12-.22,.46-.5,.85-.84,1.16-.16,.11-.2,.04-.11-.2,.13-.46,.2-.93,.23-1.43,.03-.16,.13-.23,.29-.2,.23,.05,.45,.11,.64,.18,.1,.04,.14,.09,.11,.15,0,.02,.08,.04,.24,.06l.17,.02h.75c.13,0,.2-.06,.2-.19v-.56Zm1.41,3.43c.14-.14,.31-.16,.51-.06,.28,.13,.45,.29,.49,.46,0,.03-.03,.07-.08,.11-.05,.05-.08,.13-.08,.25v2.68c-.11,.44-.35,.66-.72,.67-.2,.02-.31,.02-.33,0s-.03-.1-.03-.26c-.05-.25-.25-.47-.6-.68-.01-.03,0-.05,0-.08,.1,0,.21,0,.36,.02,.1,.01,.21,.01,.33,0,.12-.07,.16-.26,.12-.57,0-.13-.06-.2-.19-.2h-1.37c-.13,0-.2,.06-.2,.19v1.2c-.07,.32-.31,.45-.71,.37-.11-.04-.17-.12-.18-.22v-3.85c0-.16,.08-.23,.24-.2,.16,.04,.35,.12,.56,.22,.05,.03,.14,.04,.27,.04h1.28c.15,.04,.26,0,.33-.13Zm-.03,.55c0-.14-.06-.21-.18-.21h-1.31c-.23-.05-.32,.02-.27,.22v.39c0,.13,.06,.2,.19,.2h1.37c.13,0,.2-.06,.2-.19v-.41Zm0,1c0-.13-.06-.2-.19-.2h-1.37c-.13,0-.2,.06-.2,.19v.42c0,.13,.06,.2,.19,.2h1.37c.13,0,.2-.06,.2-.19v-.42Z"/>
          <path class="i" d="M82.94,87.98c0-.16,.07-.24,.23-.24,.18,.02,.37,.04,.57,.08,.12,0,.24,.05,.34,.14,.05,.13-.03,.23-.24,.3-.08,.24-.03,.33,.17,.28h1.42c.15,.03,.27,0,.33-.12,.21-.3,.37-.5,.48-.58,.11,0,.29,.12,.53,.33,.21,.18,.35,.34,.43,.48-.02,.11-.13,.14-.32,.1h-2.87c-.13,0-.2,.06-.2,.19v1.04c.03,.41-.16,.59-.56,.53-.18-.03-.29-.11-.32-.26v-1.31c0-.13-.06-.2-.19-.2h-2.63l-.26,.05c-.18,.02-.28-.02-.3-.12-.03-.13,.04-.19,.22-.17,.1,0,.2,.01,.31,.03h2.66c.13,0,.2-.06,.2-.19v-.37Zm-3.38-3.79c0-.05,.11-.06,.33-.02,.77,.24,1.01,.63,.71,1.15-.15,.17-.34,.21-.56,.14-.16-.09-.24-.24-.25-.45,.04-.31-.04-.58-.23-.82Zm2.35-.37c.13-.18,.2-.27,.21-.27,.1,.06,.09,.17-.04,.34l-1.05,2.47c-.05,.21-.02,.42,.1,.64,.2,.28,.23,.54,.1,.8-.13,.2-.31,.27-.53,.21-.24-.14-.34-.4-.29-.8-.03-.27-.14-.51-.33-.72-.15-.12-.24-.19-.25-.21,0-.03,.09-.06,.25-.08,.1,0,.19-.02,.29-.05,.04-.02,.08-.08,.14-.17,.46-.72,.93-1.44,1.41-2.17Zm-1.75-.88s.11-.05,.28-.05c.26-.01,.48,.05,.66,.17,.17,.09,.27,.24,.27,.44,.02,.16-.03,.31-.14,.45-.38,.24-.64,.12-.79-.38,0-.08-.03-.19-.09-.32-.13-.17-.2-.27-.2-.3Zm4.27,.05c.02-.16,.11-.24,.28-.21,.17,.03,.36,.07,.55,.12,.09,.02,.15,.05,.17,.07,.11,.11,.07,.19-.1,.24-.06,.03-.11,.06-.15,.11-.15,.18-.32,.36-.51,.54-.14,.11-.15,.17-.02,.17h.69c.13,0,.25-.06,.35-.18l.2-.26c.12-.25,.27-.28,.45-.1,.33,.24,.54,.47,.64,.68-.03,.05-.12,.07-.29,.07h-1.41c-.13,0-.2,.06-.2,.19v.44c0,.14,.03,.2,.09,.18,.05-.03,.11-.1,.19-.21,.16-.22,.29-.36,.37-.42,.2,.07,.42,.24,.66,.5,.12,.16,.18,.26,.17,.29-.02,.03-.11,.05-.28,.05h-1c-.13,0-.2,.06-.2,.19v.39c0,.13,.03,.2,.1,.2,.07,0,.16-.06,.27-.19l.21-.26c.11-.23,.27-.24,.47-.03,.25,.19,.44,.39,.57,.61-.05,.09-.16,.12-.33,.09h-1.09c-.13,0-.2,.06-.2,.19v.42c0,.13,.08,.2,.25,.2,.18,.05,.31,0,.39-.14,.07-.11,.16-.21,.25-.32,.15-.14,.3-.17,.46-.08,.14,.09,.29,.23,.45,.41,.11,.15,.16,.25,.16,.28-.03,.04-.12,.06-.29,.06h-3.33c-.13,0-.19,.03-.2,.08-.01,.18-.09,.29-.25,.33-.46,.11-.67-.04-.63-.45v-1.47c0-.13-.06-.14-.19-.02-.3,.29-.57,.52-.82,.68-.03,0-.06,0-.09,0-.01-.03,.04-.12,.15-.28,.53-.75,.9-1.6,1.12-2.55,.04-.22,.09-.45,.15-.67,.07-.04,.22-.02,.45,.06,.27,.08,.48,.18,.64,.29,.15,.13,.12,.22-.09,.27-.13,.05-.23,.16-.29,.32-.06,.13-.02,.19,.1,.19h.5c.13,0,.22-.08,.28-.24,.08-.32,.14-.58,.17-.8Zm-.23,1.46c0-.14-.06-.21-.17-.21h-.6c-.13,0-.2,.06-.2,.19v.42c0,.13,.06,.2,.19,.2h.58c.13,0,.2-.06,.2-.19v-.41Zm0,1c0-.13-.06-.2-.19-.2h-.58c-.13,0-.2,.06-.2,.19v.39c0,.13,.06,.2,.19,.2h.58c.13,0,.2-.06,.2-.19v-.39Zm0,.99c0-.14-.06-.21-.18-.21h-.59c-.13,0-.2,.06-.2,.19v.42c0,.13,.06,.2,.19,.2h.58c.13,0,.2-.06,.2-.19v-.41Z"/>
          <path class="i" d="M97.86,86.66c.14-.19,.24-.29,.28-.31,.04,0,.16,.1,.37,.29,.19,.2,.27,.35,.25,.45-.02,.04-.11,.06-.28,.06h-2.41c-.13,0-.2,.08-.2,.25s.06,.26,.19,.26h.49c.05-.02,.1-.05,.15-.1,.15-.27,.3-.35,.44-.25,.12,.03,.33,.14,.64,.32,.19,.12,.24,.23,.14,.33-.21,.04-.28,.16-.23,.35v1.62c.06,.21-.02,.38-.24,.51-.24,.09-.44,.07-.6-.05-.02-.03-.03-.08-.05-.16,0-.09-.07-.13-.2-.13h-3.46c-.13,0-.2,.05-.21,.14-.05,.16-.19,.25-.43,.29-.32,.07-.46-.06-.44-.4v-2.53c0-.16,.11-.22,.32-.16,.11,.03,.21,.07,.32,.12,.13,.06,.25,.1,.37,.1h.49c.13,0,.2-.08,.21-.24,.01-.03,.01-.05,0-.08,0-.13-.06-.2-.19-.2h-1.85l-.51,.08s-.04-.08-.06-.17c-.03-.12,.05-.17,.24-.16,.11,0,.21,.02,.32,.04h5.72c.15,.04,.25,0,.32-.13l.1-.16Zm-3.72-3.43c.12-.16,.24-.33,.38-.49,.04-.01,.15,.07,.35,.25l.12,.16c.1,.11,.13,.2,.08,.29-.03,.02-.12,.03-.28,.03h-1.86c-.16,0-.16,.04,0,.11,.21,.06,.32,.15,.33,.26-.02,.02-.05,.04-.1,.05-.07,0-.1,.02-.09,.04,.02,.02,.1,.02,.22,.02h.16c.13,0,.26-.07,.39-.22,.15-.3,.32-.3,.5,.02,.07,.1,.12,.19,.17,.29,.01,.04,0,.07-.02,.1-.04,.03-.14,.04-.29,.04h-.2c-.13,0-.2,.08-.21,.24l-.02,.12c-.01,.13,0,.19,.03,.2,.05,0,.13-.07,.25-.22,.13-.15,.21-.23,.23-.23,.15,.06,.3,.23,.45,.51,.02,.05,0,.1-.04,.14-.26,.02-.52,.02-.78,.02-.13,0-.2,.03-.22,.08-.02,.05,.05,.09,.21,.11,.32,.1,.46,.29,.41,.58-.03,.1-.1,.16-.21,.17-.19,.05-.33-.06-.42-.34-.1-.12-.23-.1-.39,.06-.23,.17-.45,.27-.64,.29-.22,.03-.32,.03-.29,0,.38-.21,.62-.46,.72-.77,.03-.13-.03-.19-.19-.18-.15,.02-.31,.04-.47,.07-.02-.02-.04-.08-.06-.17-.03-.12,.05-.17,.24-.16l.37,.04c.13,0,.2-.08,.21-.24v-.12c0-.13-.06-.2-.18-.2-.11-.05-.31,.05-.58,.28-.13,.08-.19,.18-.19,.31v1.11c0,.13,.06,.2,.19,.2h1.56c.13,0,.2,0,.22-.02l.2-.29c.12-.15,.2-.22,.23-.22,.07,.02,.17,.1,.3,.25,.16,.18,.24,.33,.21,.45-.03,.03-.12,.04-.28,.04h-2.45c-.13,0-.2,.04-.21,.11-.05,.14-.15,.22-.3,.24-.38,.08-.54-.03-.49-.34v-3.06c0-.17,.08-.23,.25-.19,.13,.04,.25,.09,.38,.14,.13,.06,.25,.09,.36,.09h1.52c.13,0,.2,0,.22-.02Zm-1.62,.45c.04-.15,.01-.22-.1-.22-.13,0-.19,.06-.19,.19v.41c0,.17,.04,.17,.14,.02l.15-.4Zm1.12,4.42c.05-.14,.02-.21-.1-.21-.19,0-.37,0-.57,0-.03,.02-.04,.09-.04,.21v.49c0,.13,.08,.14,.25,.02,.21-.13,.36-.31,.45-.53Zm1.46,0c0-.14-.06-.21-.18-.21h-.31c-.13,0-.23,.08-.29,.24-.27,.42-.67,.68-1.2,.79-.13,.04-.19,.11-.19,.21,0,.12,.06,.18,.19,.18h3.47c.13,0,.2-.05,.2-.16s-.06-.17-.19-.17c-.44,.03-.81,0-1.12-.12-.3-.17-.42-.42-.37-.76Zm1.69,1.62c0-.14-.06-.21-.19-.21h-3.47c-.13,0-.2,.06-.2,.19,0,.14,.06,.21,.19,.21h3.47c.13,0,.2-.06,.2-.19Zm-1.69-2.3c0-.17-.06-.26-.19-.26h-.2c-.13,0-.2,.08-.22,.24-.02,.19,.03,.28,.15,.28h.26c.13,0,.2-.08,.2-.25Zm2.25-2.56c.08-.13,.17-.16,.27-.07,.29,.15,.5,.32,.63,.52-.03,.1-.08,.14-.17,.14-.06,.03-.17,.12-.33,.29-.36,.25-.37,.34-.05,.26l.25-.02c.16,0,.24,.01,.25,.04-.02,.03-.1,.09-.26,.18-.22,.16-.34,.38-.36,.67-.27,.01-.58-.08-.94-.28-.12-.07-.26-.08-.43-.04-.55,.15-1.06,.2-1.52,.17-.02-.02-.03-.04-.02-.08,.02-.03,.11-.06,.28-.1,.4-.11,.71-.2,.93-.29,.13-.05,.13-.14,0-.29-.14-.19-.23-.36-.27-.51-.04-.13-.14-.18-.29-.17-.16,.02-.25-.01-.27-.1-.03-.11,.03-.16,.17-.16,.11,0,.21,0,.32,.02h1.44c.13,0,.24-.06,.35-.18Zm-1.85-1.7c0-.19,.08-.24,.25-.17,.08,.03,.16,.06,.24,.1,.17,.11,.32,.15,.45,.13,.12,0,.21-.01,.25-.04,.17-.19,.31-.24,.41-.17,.21,.09,.37,.21,.49,.37,0,.03-.02,.07-.06,.12-.06,.04-.09,.12-.09,.23s.01,.19,.04,.21c.04,.03,.14,.05,.29,.05,.1,.01,.19-.03,.29-.12,.05-.14,.11-.28,.18-.41,.08,0,.12,.07,.12,.21,.03,.18,.08,.29,.18,.33,.1,.06,.14,.17,.12,.32-.07,.19-.24,.3-.53,.33-.48,.08-.84,.08-1.06-.02-.18-.08-.29-.24-.32-.48v-.52c0-.13-.09-.2-.26-.2s-.27,.08-.28,.24c-.02,.51-.35,.87-1,1.08-.21,.04-.32,.05-.31,.02,.01-.03,.05-.07,.11-.12,.28-.17,.44-.49,.49-.95v-.55Zm1.56,2.29c.1-.13,.08-.2-.05-.2h-1.07c-.13,0-.14,.07-.02,.21,.18,.17,.33,.29,.46,.34,.13,.06,.28,.02,.45-.11l.23-.25Zm-.27,2.67c0-.15-.07-.23-.2-.23h-.53c-.13,0-.2,.04-.2,.11-.04,.17,.06,.27,.28,.29l.45,.02c.13,0,.2-.06,.2-.19Z"/>
          <path class="i" d="M106.41,82.95c0-.16,.07-.24,.22-.24,.2,.02,.41,.04,.63,.08,.16,.02,.26,.08,.28,.19-.04,.09-.09,.13-.14,.14-.1,.04-.13,.13-.1,.26v.25c0,.13,.06,.2,.19,.2h1.12c.14,.04,.25,0,.33-.13,.21-.3,.37-.48,.49-.53,.33,.18,.61,.43,.84,.76,0,.11-.11,.15-.3,.11h-2.87c-.12,0-.11,.03,.03,.09,.27,.06,.44,.14,.52,.22,.04,.06,0,.12-.13,.16-.03,0-.07,.03-.11,.08-.09,.15-.08,.23,.04,.23h1.04c.13,0,.2,0,.23-.02,.1-.13,.21-.28,.34-.43,.15-.14,.3-.17,.46-.08,.33,.24,.54,.47,.62,.68-.05,.06-.16,.09-.33,.06h-1.81c-.13,0-.14,.08-.03,.25,.14,.2,.32,.38,.54,.57,.13,.1,.24,.06,.34-.1l.17-.33c.07-.17,.18-.24,.34-.19,.18,.06,.36,.15,.54,.25,.15,.13,.14,.21-.02,.25-.05,0-.11,.01-.17,.05-.11,.09-.31,.19-.58,.3-.11,.04-.08,.11,.1,.21,.27,.14,.57,.24,.9,.3,.18,.03,.27,.06,.29,.08,0,.03-.07,.09-.24,.18-.16,.12-.26,.25-.31,.4-.01,.27-.14,.31-.38,.12l-.24-.13c-.17-.11-.25-.1-.25,.03v.84c.05,.25-.03,.41-.25,.48-.31,.09-.5,.02-.56-.2,0-.12-.07-.17-.19-.17h-.23c-.13,0-.2,.06-.2,.19v1.37c-.03,.47-.29,.73-.78,.8-.1,.03-.21,.03-.33,0-.02-.02-.01-.12,.02-.3,0-.12-.05-.25-.16-.4-.14-.15-.21-.24-.21-.26,.02-.03,.11-.02,.27,0,.27,.09,.4,0,.37-.29v-.92c0-.13-.06-.2-.19-.2h-.24c-.13,0-.2,.03-.22,.09-.19,.23-.42,.27-.72,.1-.06-.08-.09-.2-.06-.36v-1.09c0-.13-.08-.16-.25-.09l-.2,.08c-.13,.05-.2,.15-.23,.31-.1,.9-.41,1.72-.95,2.47-.25,.3-.49,.53-.72,.68-.16,.09-.26,.13-.28,.12,0-.03,.04-.12,.14-.28,.57-.82,.9-1.79,1-2.91,.01-.13-.05-.12-.17,.03-.14,.18-.28,.37-.41,.57-.05,.16-.08,.25-.1,.26-.05,.04-.11,.01-.2-.09-.13-.21-.23-.4-.32-.59-.07-.18-.02-.29,.17-.36,.29-.08,.59-.19,.9-.33,.12-.05,.19-.16,.2-.33,0-.2,0-.4,.02-.62v-2.16c0-.19,.08-.25,.25-.18,.18,.07,.36,.16,.54,.25,.08,.05,.18,.07,.31,.07h1.15c.13,0,.2-.06,.2-.19v-.68Zm-3.59,1.54s.11-.01,.27,.07c.21,.11,.38,.26,.52,.44,.25,.35,.24,.67-.06,.96-.2,.12-.38,.12-.54,0-.16-.15-.18-.43-.06-.84,.01-.21-.03-.41-.13-.62Zm2.75,4.35c.08-.16,.19-.21,.33-.15,.21,.11,.39,.2,.54,.29,.08,.04,.12,.11,.1,.19-.03,.03-.08,.05-.16,.07-.08,.01-.17,.06-.28,.14-.53,.4-1.11,.68-1.77,.83-.16,.03-.24,.04-.25,.02,0-.02,.08-.08,.24-.17,.48-.27,.89-.68,1.25-1.22Zm.6-3.55c.1-.18,.09-.27-.02-.27h-1.15c-.13,0-.2,.06-.2,.19,0,.5-.01,.96-.05,1.35-.01,.13,.07,.14,.23,.02l.2-.16c.11-.09,.13-.18,.08-.25-.03-.06-.05-.15-.06-.25-.03-.21-.14-.41-.31-.61,0-.04,.09-.05,.25-.03,.28,.06,.49,.17,.64,.33,.05,.08,.12,.06,.21-.05l.18-.26Zm.44-1.05c.02-.14-.03-.21-.16-.21h-1.45c-.13,0-.2,.06-.2,.19v.39c0,.13,.06,.2,.19,.2h1.23c.13,0,.23-.08,.29-.24,.04-.11,.07-.22,.1-.33Zm1.6,2.4c0-.15-.06-.22-.19-.22h-1.6c-.23-.05-.32,.02-.27,.22v.26c0,.13,.06,.2,.19,.2h1.67c.13,0,.2-.06,.2-.19v-.27Zm0,.87c0-.13-.06-.2-.19-.2h-1.67c-.13,0-.2,.06-.2,.19v.29c0,.13,.06,.2,.19,.2h1.67c.13,0,.2-.06,.2-.19v-.29Zm-.44-2.24c-.05-.17-.16-.25-.33-.25-.17,0-.32,.08-.42,.24-.2,.27-.4,.51-.62,.73-.15,.15-.16,.22-.02,.22h1.52c.13,0,.21-.02,.25-.05,.04-.04,0-.14-.1-.31-.1-.19-.19-.38-.27-.58Zm.47,3.8c-.25-.16-.26-.25-.04-.25,.49,.03,.91,.16,1.27,.38,.24,.15,.38,.35,.42,.6,.02,.14-.03,.28-.16,.41-.22,.16-.45,.11-.71-.17-.18-.38-.44-.7-.79-.97Z"/>
        </g>
        <g class="h">
          <path class="i" d="M56.41,78.75h-.61c-.2-.61-.35-1.01-.45-1.21-.12-.25-.25-.41-.4-.48-.12-.06-.33-.09-.64-.09-.18,0-.34,0-.48,0,0,.68,.01,1.27,.04,1.77h-.59c.03-.66,.05-1.38,.05-2.17,0-.75-.02-1.4-.05-1.96h.45c.1,0,.22,0,.36,0,.15,0,.31,0,.5,0,.93,0,1.39,.32,1.39,.96,0,.53-.26,.91-.78,1.12v.03c.23,.07,.42,.23,.57,.49,.12,.21,.34,.73,.65,1.56Zm-.97-2.98c0-.5-.34-.76-1.02-.76-.24,0-.45,.01-.61,.04,.01,.37,.02,.87,.02,1.5,.13,0,.25,0,.37,0,.83,0,1.25-.26,1.25-.79Z"/>
          <path class="i" d="M61.72,74.61c0,.4-.01,.77-.02,1.12,0,.35,0,.67,0,.97,0,1.42-.56,2.13-1.68,2.13-.29,0-.54-.04-.75-.13-.21-.08-.38-.21-.51-.38-.13-.17-.23-.39-.3-.65-.06-.26-.09-.57-.09-.93,0-.31,0-.65,0-1,0-.35-.01-.73-.02-1.13h.6c-.03,.81-.04,1.44-.04,1.9,0,.37,.02,.67,.05,.9,.04,.23,.1,.43,.19,.58,.09,.15,.21,.26,.35,.33,.14,.06,.32,.1,.53,.1,.23,0,.41-.03,.55-.1,.14-.06,.26-.17,.35-.32,.09-.15,.15-.34,.19-.58,.04-.23,.06-.54,.06-.92,0-.22,0-.49-.01-.81,0-.31-.02-.67-.03-1.09h.59Z"/>
          <path class="i" d="M65.51,78.75h-.6c.03-.69,.05-1.41,.05-2.17s-.02-1.41-.05-1.96h.6c-.03,.58-.04,1.23-.04,1.96,0,.77,.01,1.49,.04,2.17Z"/>
          <path class="i" d="M79.09,78.31l-.02,.47h-2.5c.03-.52,.04-1.25,.04-2.17,0-.8-.01-1.45-.04-1.96h.59c-.03,.43-.04,1.08-.04,1.96,0,.72-.01,1.31-.03,1.74,.64,0,1.3-.01,2-.03Z"/>
          <path class="i" d="M81.33,78.78h-.6c.03-.69,.05-1.41,.05-2.17s-.02-1.41-.05-1.96h.6c-.03,.58-.04,1.23-.04,1.96,0,.77,.01,1.49,.04,2.17Z"/>
          <path class="i" d="M87.2,78.78h-.45s-.35-.54-1.04-1.52c-.73-1.03-1.14-1.68-1.24-1.95h-.03c.04,.51,.06,.95,.06,1.31,0,.71,.02,1.43,.05,2.16h-.53c.04-.69,.05-1.41,.05-2.17s-.02-1.4-.05-1.96h.61c0,.06,.32,.54,.96,1.45,.67,.95,1.05,1.57,1.14,1.86h.03c-.04-.52-.05-.96-.05-1.32,0-.78-.01-1.45-.04-2h.54c-.04,.56-.05,1.22-.05,1.96s.02,1.49,.05,2.17Z"/>
          <path class="i" d="M92.11,78.69c-.35,.11-.7,.17-1.05,.17-.74,0-1.3-.2-1.68-.6s-.57-.89-.57-1.47,.21-1.11,.62-1.55c.41-.44,.98-.66,1.71-.66,.26,0,.51,.03,.75,.09l-.08,.53c-.35-.08-.63-.13-.85-.13-.51,0-.91,.16-1.18,.47-.27,.31-.41,.7-.41,1.16s.16,.87,.47,1.21c.31,.35,.75,.52,1.32,.52,.1,0,.26-.02,.47-.05-.04-.22-.05-.48-.05-.77,0-.25-.01-.49-.04-.72h.58c-.02,.28-.03,.58-.03,.89,0,.13,0,.44,.03,.91Z"/>
          <path class="i" d="M104.63,78.26l-.04,.47c-.26,.08-.54,.12-.85,.12-.73,0-1.28-.2-1.64-.6-.37-.4-.55-.89-.55-1.46s.2-1.12,.61-1.56c.41-.44,.96-.66,1.65-.66,.19,0,.39,.03,.6,.09l-.09,.51c-.24-.08-.46-.11-.65-.11-.51,0-.9,.16-1.17,.48-.26,.32-.4,.71-.4,1.17s.15,.87,.46,1.2c.31,.33,.73,.5,1.27,.5,.21,0,.47-.05,.8-.14Z"/>
          <path class="i" d="M109.04,78.3l-.02,.47h-2.5c.03-.52,.04-1.25,.04-2.17,0-.8-.01-1.45-.04-1.96h.59c-.03,.43-.04,1.08-.04,1.96,0,.72-.01,1.31-.03,1.74,.64,0,1.3-.01,2-.03Z"/>
          <path class="i" d="M111.67,78.76h-.6c.03-.69,.05-1.41,.05-2.17s-.02-1.41-.05-1.96h.6c-.03,.58-.04,1.23-.04,1.96,0,.77,.01,1.49,.04,2.17Z"/>
          <path class="i" d="M117.19,78.76h-.45s-.35-.54-1.04-1.52c-.73-1.03-1.14-1.68-1.24-1.95h-.03c.04,.51,.06,.95,.06,1.31,0,.71,.02,1.43,.05,2.16h-.53c.04-.69,.05-1.41,.05-2.17s-.02-1.4-.05-1.96h.61c0,.06,.32,.54,.96,1.45,.67,.95,1.05,1.57,1.14,1.86h.03c-.04-.52-.05-.96-.05-1.32,0-.78-.01-1.45-.04-2h.54c-.04,.56-.05,1.22-.05,1.96s.02,1.49,.05,2.17Z"/>
          <path class="i" d="M119.96,78.76h-.6c.03-.69,.05-1.41,.05-2.17s-.02-1.41-.05-1.96h.6c-.03,.58-.04,1.23-.04,1.96,0,.77,.01,1.49,.04,2.17Z"/>
          <path class="i" d="M125.12,78.26l-.04,.47c-.26,.08-.54,.12-.85,.12-.73,0-1.28-.2-1.64-.6-.37-.4-.55-.89-.55-1.46s.2-1.12,.61-1.56c.41-.44,.96-.66,1.65-.66,.19,0,.39,.03,.6,.09l-.09,.51c-.24-.08-.46-.11-.65-.11-.51,0-.9,.16-1.17,.48-.26,.32-.4,.71-.4,1.17s.15,.87,.46,1.2c.31,.33,.73,.5,1.27,.5,.21,0,.47-.05,.8-.14Z"/>
        </g>
      </g>
    </g>
  </g>
</svg>